<?xml version="1.0" encoding="UTF-8"?>
<svg width="161px" height="122px" viewBox="0 0 161 122" version="1.1" xmlns="http://www.w3.org/2000/svg" xmlns:xlink="http://www.w3.org/1999/xlink">
    <!-- Generator: Sketch 60 (88103) - https://sketch.com -->
    <title>02_Icon</title>
    <desc>Created with Sketch.</desc>
    <g id="Page-1" stroke="none" stroke-width="1" fill="none" fill-rule="evenodd">
        <g id="02" transform="translate(-897.000000, -177.000000)">
            <g id="02_Icon" transform="translate(897.000000, 177.000000)">
                <path d="M74.6948619,60.0615385 C63.345599,60.0615385 53.3835958,66.0123615 47.7477163,74.9695731 C44.1373493,73.0530869 40.0193145,71.9678066 35.6482785,71.9678066 C24.437139,71.9678066 14.890383,79.1073866 11.2904244,89.0960154 C6.24770644,89.7473829 2.02032394,93.0071416 -1.84741111e-13,97.4812074 L135.779942,97.4812074 C133.236953,89.1126507 125.472196,83.0236269 116.287962,83.0236269 C112.511321,83.0236269 108.974703,84.0532378 105.942493,85.8475754 C103.10032,71.1550583 90.1906554,60.0615385 74.6948619,60.0615385 Z" id="Shape" fill="#FFBE29"></path>
                <path d="M32.1093636,22.4759475 L78.4489862,0.409460553 C78.9929673,0.150421936 79.6247395,0.150421936 80.1687206,0.409460553 L126.508343,22.4759475 C127.204825,22.8076054 127.648476,23.510252 127.648476,24.2816686 L127.648476,45.440611 C127.648476,77.820248 109.212765,107.342179 80.1915172,121.573443 L79.3088534,122 C49.7792616,107.93829 30.9692308,78.147315 30.9692308,45.440611 L30.9692308,24.2816686 C30.9692308,23.510252 31.412882,22.8076054 32.1093636,22.4759475 Z" id="Shape" fill="#AA63F8"></path>
                <path d="M92.3394883,43.0543582 C93.6462242,41.1863533 96.2198602,40.7313549 98.0878651,42.0380909 C99.9134153,43.3151283 100.389457,45.8021338 99.1905021,47.6580335 L99.1041323,47.7864677 L79.096203,76.3881979 C77.6077887,78.5159156 74.5604876,78.748878 72.7641918,76.9097795 L72.6558015,76.7945911 L61.1312395,64.082711 C59.6000588,62.3937804 59.7279404,59.7833643 61.416871,58.2521836 C63.065589,56.7574596 65.5924345,56.8437354 67.1362199,58.4198334 L67.2473984,58.5378151 L75.2966109,67.4165236 L92.3394883,43.0543582 Z" id="Shape" fill="#843CD4" fill-rule="nonzero"></path>
                <path d="M41.493979,30.0173671 L78.0505828,12.6094606 C78.5945639,12.3504219 79.226336,12.3504219 79.7703171,12.6094606 L116.326921,30.0173671 C117.023402,30.349025 117.467054,31.0516715 117.467054,31.8230881 L117.467054,48.4442969 C117.467054,74.2709121 102.762379,97.8181662 79.6144794,109.169294 L78.9104499,109.509524 C55.357085,98.2936358 40.3538462,74.531787 40.3538462,48.4442969 L40.3538462,31.8230881 C40.3538462,31.0516715 40.7974974,30.349025 41.493979,30.0173671 Z" id="Shape" stroke="#1C1C21" stroke-width="2"></path>
                <path d="M125.242058,41.2923077 C117.789363,41.2923077 111.281373,45.3370711 107.793531,51.3511549 C106.04764,50.6783065 104.15112,50.3095692 102.168477,50.3095692 C93.6150986,50.3095692 86.6646207,57.1724013 86.5230769,65.6920318 L160.452012,65.6923077 C159.12808,59.9196586 153.959485,55.6138406 147.785211,55.6138406 C146.704814,55.6138406 145.65521,55.7456818 144.65161,55.9941531 C142.273019,47.5122202 134.483908,41.2923077 125.242058,41.2923077 Z" id="Shape" fill="#FFBE29"></path>
            </g>
        </g>
    </g>
</svg>