<svg height="286" viewBox="0 0 490 286" width="490" xmlns="http://www.w3.org/2000/svg"><g fill="none" fill-rule="evenodd"><path d="m134 86.378v41.339l-30-17.717zm194 0 30 23.622-30 17.717z" fill="#8533d7"/><path d="m318 0c5.522847 0 10 4.4771525 10 10v117.717l30-17.717v145c0 2.761424-2.238576 5-5 5h-244c-2.761424 0-5-2.238576-5-5v-145l30 17.717v-117.717c0-5.5228475 4.477153-10 10-10z" fill="#ab5dfb"/><path d="m356.982998 108.277877 2.034004 3.444246-124.083004 73.277877 124.083004 73.277877c.951102.561675 1.266796 1.788022.705121 2.739125-.534928.905811-1.672735 1.235289-2.601482.779418l-.137643-.074297-127-75-125.277877-73.982998c-.951102-.561675-1.266796-1.788023-.705121-2.739125.561676-.951104 1.788024-1.266803 2.739132-.705134l124.260868 73.381134zm-122.472998-64.892877c25.3 0 39.445 16.445 39.445 38.755 0 20.47-9.43 33.58-24.265 33.58-7.36 0-10.235-3.565-10.81-7.82h-.345c-3.45 3.91-8.625 7.82-15.41 7.82-9.775 0-15.18-6.9-15.18-18.17 0-18.285 9.315-32.66 24.265-32.66 6.21 0 10.465 2.415 12.65 4.715h.46l.575-3.68h5.75l-6.785 36.8c-.92 5.29.345 8.51 5.865 8.51 10.58 0 17.71-10.58 17.71-28.75 0-20.125-10.925-34.27-34.155-34.27-28.06 0-42.895 20.815-42.895 46.69 0 23 12.19 36.8 38.18 36.8 10.695 0 19.78-2.645 25.07-4.6v4.37c-6.21 2.53-15.18 4.945-25.07 4.945-28.75 0-43.7-15.41-43.7-41.4 0-26.795 16.675-51.635 48.645-51.635zm-2.3 26.335c-12.305 0-18.055 12.535-18.055 27.83 0 8.74 3.565 13.34 10.465 13.34 6.325 0 11.155-3.91 14.145-7.82l5.29-28.75c-2.07-2.415-5.865-4.6-11.845-4.6z" fill="#121216" fill-rule="nonzero"/><path d="m424.30724 174.843206c.710734-.282038 1.50234-.282038 2.213073 0 1.48503.589297 2.238268 2.231861 1.74222 3.729286l-.060284.165722-41.711111 105.111999c-.334617.843235-1.032839 1.489762-1.899274 1.758656-1.525888.473551-3.143361-.332156-3.697279-1.809152l-.057111-.166843-14.548001-46.876892-46.876893-14.548001c-.866435-.268894-1.564657-.915421-1.899274-1.758656-.589298-1.48503.089857-3.159584 1.51997-3.825258l.161965-.069751zm-362.5788222 27.890607c.9358779-.935878 2.4279541-.976568 3.4121971-.122071l.1309673.122071 13.9946044 13.994605c.9358779.935878.9765683 2.427954.1220711 3.412197l-.1220711.130967-13.9946044 13.994605c-.9358779.935878-2.4279541.976568-3.4121971.122071l-.1309673-.122071-13.9946044-13.994605c-.9358779-.935878-.9765683-2.427954-.1220711-3.412197l.1220711-.130967zm119.3205812-150.733813c10.726598 0 19.452536 8.5658397 19.710622 19.2303261l.005877.4861723v120.5135456c0 .650634-.20826 1.284185-.594295 1.807922-.945936 1.283356-2.707805 1.610038-4.042465.791886l-.218275-.146991-38.431624-28.327171h-90.7623406c-10.7265972 0-19.4525353-8.565839-19.7106216-19.230326l-.0058768-.486172v-74.9226936c0-10.7265972 8.5658397-19.4525353 19.2303261-19.7106216l.4861723-.0058768zm-170.7837381 99.511446c.6418142-.641815 1.6589434-.679568 2.3449123-.113262l.1245659.113262 9.7538152 9.753815c.6418142.641814.679568 1.658943.1132613 2.344912l-.1132613.124566-9.7538152 9.753815c-.6418142.641815-1.6589434.679568-2.3449123.113262l-.1245659-.113262-9.75381522-9.753815c-.64181419-.641814-.67956796-1.658943-.11326133-2.344912l.11326133-.124566zm461.4631571-38.777633c.935878-.935878 2.427954-.976568 3.412197-.122071l.130967.122071 13.994605 13.994605c.935878.935878.976568 2.427954.122071 3.412197l-.122071.130967-13.994605 13.994605c-.935878.935878-2.427954.976568-3.412197.122071l-.130967-.122071-13.994605-13.994605c-.935878-.935878-.976568-2.427954-.122071-3.412197l.122071-.130967zm-75.463157-52.2223673c.641814-.6418142 1.658943-.679568 2.344912-.1132613l.124566.1132613 9.753815 9.7538152c.641815.6418142.679568 1.6589434.113262 2.3449123l-.113262.1245659-9.753815 9.7538152c-.641814.6418142-1.658943.679568-2.344912.1132613l-.124566-.1132613-9.753815-9.7538152c-.641815-.6418142-.679568-1.6589434-.113262-2.3449123l.113262-.1245659z" fill="#ffbf00" transform="matrix(-1 0 0 1 490 0)"/><path d="m402.06669 175.508866c.735527.735588 1.054565 1.824398.785274 2.868482l-.057429.195144-.056955.157374-41.714439 105.120347c-.334617.843235-1.032839 1.489762-1.899275 1.758656-.211928.065771-.425624.106865-.637991.124911l-.211811.010423-.168348-.002481c-1.168502-.050303-2.238071-.786173-2.67293-1.925622l-.06331-.183226-14.548001-46.876892zm-303.7894078-75.325782c4.7871038 0 8.7456708 3.958567 8.7456708 8.745671s-3.958567 8.745671-8.7456708 8.745671c-4.7871041 0-8.7456709-3.958567-8.7456709-8.745671s3.9585668-8.745671 8.7456709-8.745671zm27.9461888 0c4.787104 0 8.745671 3.958567 8.745671 8.745671s-3.958567 8.745671-8.745671 8.745671-8.745671-3.958567-8.745671-8.745671 3.958567-8.745671 8.745671-8.745671zm-55.8923773 0c4.7871041 0 8.7456709 3.958567 8.7456709 8.745671s-3.9585668 8.745671-8.7456709 8.745671-8.745671-3.958567-8.745671-8.745671 3.9585669-8.745671 8.745671-8.745671z" fill="#e9a300" fill-rule="nonzero" transform="matrix(-1 0 0 1 464.532002 0)"/></g></svg>