<?xml version="1.0" encoding="UTF-8"?>
<svg width="154px" height="106px" viewBox="0 0 154 106" version="1.1" xmlns="http://www.w3.org/2000/svg" xmlns:xlink="http://www.w3.org/1999/xlink">
    <!-- Generator: Sketch 60 (88103) - https://sketch.com -->
    <title>04_Icon</title>
    <desc>Created with Sketch.</desc>
    <g id="Page-1" stroke="none" stroke-width="1" fill="none" fill-rule="evenodd">
        <g id="03" transform="translate(-900.000000, -206.000000)">
            <g id="04_Icon" transform="translate(900.000000, 206.000000)">
                <path d="M83,50 C85.209139,50 87,51.790861 87,54 L87,89 C87,91.209139 85.209139,93 83,93 L4,93 C1.790861,93 0,91.209139 0,89 L0,54 C0,51.790861 1.790861,50 4,50 L83,50 Z M150,0 C152.209139,0 154,1.790861 154,4 L154,39 C154,41.209139 152.209139,43 150,43 L21,43 C18.790861,43 17,41.209139 17,39 L17,4 C17,1.790861 18.790861,0 21,0 L150,0 Z" id="Shape" fill="#AA63F8"></path>
                <path d="M98,50 L133,50 C135.209139,50 137,51.790861 137,54 L137,89 C137,91.209139 135.209139,93 133,93 L98,93 C95.790861,93 94,91.209139 94,89 L94,54 C94,51.790861 95.790861,50 98,50 Z" id="Shape" fill="#843CD4"></path>
                <path d="M131.660201,103.791853 L124.026976,71.2438312 C123.899284,70.6993502 124.237157,70.1544458 124.781638,70.0267531 C125.051448,69.9634768 125.335402,70.0135455 125.567298,70.1652862 L153.541718,88.4702504 C154.009689,88.7764657 154.140818,89.404068 153.834602,89.8720392 C153.764065,89.9798369 153.673607,90.0731851 153.56808,90.147076 L146.65342,94.9887732 L150.518277,100.508362 C150.839052,100.966476 150.727716,101.59789 150.269603,101.918665 L145.416706,105.316699 C144.958592,105.637474 144.327178,105.526139 144.006403,105.068025 L140.141546,99.5484364 L133.226885,104.390134 C132.768771,104.710908 132.137357,104.599573 131.816582,104.141459 C131.742692,104.035932 131.689615,103.917275 131.660201,103.791853 Z" id="Shape" fill="#FFBE29"></path>
                <path d="M111.050253,65.6360392 L115.999146,70.585146 L120.949748,65.6360392 C121.310232,65.2755553 121.877463,65.2478257 122.269754,65.5528506 L122.363961,65.6360392 C122.724445,65.9965232 122.752175,66.5637542 122.44715,66.9560454 L122.363961,67.0502528 L117.414146,71.999146 L122.363961,76.9497477 C122.754486,77.340272 122.754486,77.973437 122.363961,78.3639613 C121.973437,78.7544856 121.340272,78.7544856 120.949748,78.3639613 L115.999146,73.414146 L111.050253,78.3639613 C110.689769,78.7244452 110.122538,78.7521748 109.730247,78.4471499 L109.636039,78.3639613 C109.275555,78.0034773 109.247826,77.4362463 109.552851,77.0439551 L109.636039,76.9497477 L114.585146,71.999146 L109.636039,67.0502528 C109.245515,66.6597285 109.245515,66.0265635 109.636039,65.6360392 C110.026564,65.2455149 110.659728,65.2455149 111.050253,65.6360392 Z M38.5,9 C45.4035594,9 51,14.5964406 51,21.5 C51,28.4035594 45.4035594,34 38.5,34 C31.5964406,34 26,28.4035594 26,21.5 C26,14.5964406 31.5964406,9 38.5,9 Z M38.5,11 C32.7010101,11 28,15.7010101 28,21.5 C28,27.2989899 32.7010101,32 38.5,32 C44.2989899,32 49,27.2989899 49,21.5 C49,15.7010101 44.2989899,11 38.5,11 Z M111,25 C111.552285,25 112,25.4477153 112,26 C112,26.5522847 111.552285,27 111,27 L59,27 C58.4477153,27 58,26.5522847 58,26 C58,25.4477153 58.4477153,25 59,25 L111,25 Z M143,16 C143.552285,16 144,16.4477153 144,17 C144,17.5522847 143.552285,18 143,18 L59,18 C58.4477153,18 58,17.5522847 58,17 C58,16.4477153 58.4477153,16 59,16 L143,16 Z" id="Combined-Shape" fill="#1C1C21" fill-rule="nonzero"></path>
            </g>
        </g>
    </g>
</svg>