<svg width="517" height="410" viewBox="0 0 517 410" fill="none" xmlns="http://www.w3.org/2000/svg">
<path d="M0.419922 8.73091V317.888C0.419922 320.095 1.29776 322.212 2.86034 323.772C4.42291 325.333 6.54221 326.21 8.75201 326.21L508.257 325.6C510.456 325.589 512.561 324.71 514.114 323.156C515.667 321.601 516.541 319.496 516.547 317.3V8.78344C516.544 6.58378 515.669 4.47469 514.114 2.91733C512.558 1.35997 510.449 0.481029 508.246 0.472699L8.74149 0.420166C6.53448 0.420166 4.41785 1.29576 2.85725 2.85433C1.29666 4.41289 0.419922 6.52676 0.419922 8.73091V8.73091Z" stroke="#606264" stroke-width="0.8" stroke-miterlimit="10"/>
<path d="M505.437 316.05H11.5605V10.5696H505.437V23.955V316.05Z" stroke="#606264" stroke-width="0.8" stroke-miterlimit="10"/>
<path d="M239.462 325.915L238.6 356.574C238.6 356.574 244.912 363.298 258.294 363.298C271.675 363.298 278.398 356.605 278.398 356.605L277.672 325.894L239.462 325.915Z" stroke="#606264" stroke-width="0.75" stroke-miterlimit="10"/>
<path d="M238.59 356.574L228.985 383.597C228.95 383.69 228.891 383.771 228.813 383.833C228.735 383.894 228.641 383.932 228.543 383.943L150.44 393.694C150.325 393.71 150.218 393.763 150.134 393.844C150.051 393.925 149.996 394.031 149.977 394.145L147.736 409.002C147.722 409.082 147.727 409.164 147.751 409.241C147.775 409.319 147.817 409.39 147.873 409.448C147.929 409.507 147.999 409.551 148.076 409.577C148.152 409.604 148.234 409.612 148.315 409.601C157.394 408.382 221.747 397.634 258.315 397.634C294.884 397.634 359.594 408.256 368.779 409.464C368.86 409.476 368.943 409.468 369.021 409.441C369.099 409.414 369.169 409.368 369.226 409.309C369.282 409.249 369.324 409.177 369.347 409.098C369.37 409.019 369.373 408.935 369.357 408.855L366.79 393.998C366.769 393.886 366.713 393.782 366.63 393.703C366.547 393.624 366.441 393.573 366.327 393.557L289.361 383.933C289.267 383.919 289.179 383.881 289.105 383.821C289.031 383.762 288.974 383.685 288.94 383.597L278.42 356.626" stroke="#606264" stroke-width="0.75" stroke-miterlimit="10"/>
</svg>
