
<svg width="41px" height="40px" viewBox="0 0 41 40" version="1.1" xmlns="http://www.w3.org/2000/svg" xmlns:xlink="http://www.w3.org/1999/xlink">
    <g id="Page-1" stroke="none" stroke-width="1" fill="none" fill-rule="evenodd">
        <path d="M41,11.5 L41,40 L0,40 L0,30.5 L8,30.5 L8,38.5 L11,38.5 L11,21.5 L19,21.5 L19,38.5 L22,38.5 L22,25.5 L30,25.5 L30,38.5 L33,38.5 L33,11.5 L41,11.5 Z M39.5,13 L34.5,13 L34.5,38 L39.5,38 L39.5,13 Z M28.5,27 L23.5,27 L23.5,38 L28.5,38 L28.5,27 Z M17.5,23 L12.5,23 L12.5,38 L17.5,38 L17.5,23 Z M6.5,32 L1.5,32 L1.5,38 L6.5,38 L6.5,32 Z M37.25,0 L37.25,6.5625 C37.25,6.90104336 37.1263033,7.19400918 36.8789062,7.44140625 C36.6315092,7.68880332 36.3385434,7.8125 36,7.8125 C35.6614566,7.8125 35.3684908,7.68880332 35.1210937,7.44140625 C34.8736967,7.19400918 34.75,6.90104336 34.75,6.5625 L34.75,4.2578125 L25.609375,13.359375 C25.4270824,13.5677094 25.2057305,13.6979164 24.9453125,13.75 C24.6848945,13.8020836 24.4375012,13.7630215 24.203125,13.6328125 L17.4453125,10.234375 L6.8203125,19.6875 C6.69010352,19.7916672 6.55989648,19.8697914 6.4296875,19.921875 C6.29947852,19.9739586 6.15625078,20 6,20 C5.81770742,20 5.64843828,19.9674482 5.4921875,19.9023438 C5.33593672,19.8372393 5.19270898,19.7265633 5.0625,19.5703125 C4.85416562,19.3098945 4.7630207,19.003908 4.7890625,18.6523438 C4.8151043,18.3007795 4.94531133,18.0208344 5.1796875,17.8125 L16.4296875,7.8125 C16.6119801,7.65624922 16.833332,7.55208359 17.09375,7.5 C17.354168,7.44791641 17.5885406,7.48697852 17.796875,7.6171875 L24.515625,11.015625 L32.9921875,2.5 L30.6875,2.5 C30.3489566,2.5 30.0559908,2.37630332 29.8085937,2.12890625 C29.5611967,1.88150918 29.4375,1.58854336 29.4375,1.25 C29.4375,0.911456641 29.5611967,0.61849082 29.8085937,0.37109375 C30.0559908,0.12369668 30.3489566,0 30.6875,0 L37.25,0 Z" id="Combined-Shape" fill="#56C2F6" fill-rule="nonzero"></path>
    </g>
</svg>