<svg width="522" height="338" viewBox="0 0 522 338" fill="none" xmlns="http://www.w3.org/2000/svg">
<path d="M6.33145 77.4321L0.390625 71.6976L0.503882 19.932L20.4885 0.978027H73.5236L78.0332 6.89792" stroke="#606264" stroke-width="0.75" stroke-miterlimit="10"/>
<path d="M444.984 6.33159L450.719 0.391113L502.498 0.504363L521.443 20.4879V73.5198L515.523 78.0292" stroke="#606264" stroke-width="0.75" stroke-miterlimit="10"/>
<path d="M515.667 261.155L521.618 266.899L521.504 318.665L501.51 337.619H448.474L443.965 331.699" stroke="#606264" stroke-width="0.75" stroke-miterlimit="10"/>
<path d="M77.0855 331.4L71.3506 337.351L19.5717 337.238L0.626953 317.244V264.212L6.54719 259.703" stroke="#606264" stroke-width="0.75" stroke-miterlimit="10"/>
<path d="M23.6596 7.01106L6.38281 23.6279V314.063L23.0418 331.503L58.2441 331.37L498.329 331.503L515.657 314.361V23.6794L498.545 6.56836L23.6596 7.01106Z" stroke="#606264" stroke-width="0.75" stroke-miterlimit="10"/>
<path d="M470.695 300.185C470.692 301.232 470.274 302.234 469.533 302.974C468.792 303.713 467.788 304.128 466.741 304.128H35.336C34.291 304.125 33.2895 303.709 32.5506 302.97C31.8116 302.231 31.3953 301.23 31.3926 300.185V37.8152C31.3953 36.7703 31.8116 35.7689 32.5506 35.03C33.2895 34.2911 34.291 33.8748 35.336 33.8721H466.741C467.788 33.8721 468.792 34.2872 469.533 35.0264C470.274 35.7656 470.692 36.7685 470.695 37.8152V300.185Z" stroke="#606264" stroke-width="0.72" stroke-miterlimit="10"/>
<path d="M492.234 179.182C497.857 179.182 502.416 174.623 502.416 169C502.416 163.376 497.857 158.818 492.234 158.818C486.61 158.818 482.051 163.376 482.051 169C482.051 174.623 486.61 179.182 492.234 179.182Z" stroke="#606264" stroke-width="0.73" stroke-miterlimit="10"/>
</svg>
