<?xml version="1.0" encoding="UTF-8"?>
<svg width="89px" height="40px" viewBox="0 0 89 40" version="1.1" xmlns="http://www.w3.org/2000/svg" xmlns:xlink="http://www.w3.org/1999/xlink">
    <!-- Generator: Sketch 63.1 (92452) - https://sketch.com -->
    <title>kpn</title>
    <desc>Created with Sketch.</desc>
    <g id="Page-1" stroke="none" stroke-width="1" fill="none" fill-rule="evenodd" fill-opacity="0.7">
        <g id="kpn" fill="#FFFFFF" fill-rule="nonzero">
            <path d="M34.5409208,30.7021119 C34.829941,29.5439481 35.3731919,28.0799546 35.921795,26.7722 C36.7848413,24.719152 37.6759869,22.5976246 37.6759869,20.6529464 C37.6759869,18.9117117 36.9226611,17.1638283 35.6080208,15.8580684 C34.4372214,14.6945859 32.2675631,13.3070498 28.5805489,13.3070498 C27.8446179,13.3070498 27.1796039,13.358243 26.586176,13.4393543 C26.7641373,14.0430356 26.8999501,14.6713162 26.9989662,15.3188774 C27.4733072,15.2590411 27.9951492,15.2198151 28.5805489,15.2198151 C31.6072323,15.2198151 33.332656,16.3021863 34.2472174,17.2103677 C35.2025897,18.1604343 35.7511928,19.4143361 35.7511928,20.6529464 C35.7511928,22.2140077 34.9349784,24.1566912 34.1461942,26.0355494 C33.593577,27.351282 33.000818,28.9429262 32.6736632,30.240708 C31.9096331,33.2710816 30.6839734,38.0878994 27.6499307,38.0878994 C26.4664199,38.0878994 25.1772026,37.3412761 23.9374933,36.3420107 C23.3320229,36.649835 22.6703541,36.9330599 21.9538249,37.1783886 C23.6939671,38.7281473 25.6247824,40 27.6499307,40 C32.1906249,40 33.6966073,34.0934976 34.5409208,30.7021119 M7.86931003,18.1044541 C7.08052582,16.1650949 6.35730638,13.6858796 6.35730638,11.5956001 C6.35730638,7.91367624 7.27186788,4.89194571 8.86816909,3.30628513 C9.81283686,2.36818573 10.9722627,1.9127654 12.4113422,1.9127654 C16.0675812,1.9127654 22.9177607,5.23301232 25.8146527,11.4147617 C26.4234683,11.3110454 27.0985177,11.2372474 27.8398009,11.2053348 C24.7642784,3.83084958 16.7854484,0 12.4113422,0 C6.52857758,0 4.43251232,5.98960844 4.43251232,11.5956001 C4.43251232,14.2636319 5.3771801,17.0832489 6.08099773,18.8138461 C6.6289318,18.5638636 7.22570493,18.3298373 7.86931003,18.1044541 M20.75593,33.3160917 C19.6500263,33.7096812 18.3721826,33.9703013 16.8762356,33.9703013 C12.3964229,33.9703013 7.49779869,31.9797488 4.39819118,28.8988468 C2.82597499,27.3371208 1.92479404,25.6676894 1.92479404,24.3193793 C1.92479404,22.3354753 2.72762784,20.9565822 4.20818718,19.8795297 C3.99209108,19.3622786 3.75057192,18.7373222 3.51172886,18.0359084 C1.45446724,19.3755754 0,21.2976488 0,24.3193793 C0,26.1975727 1.07914244,28.3058032 3.03805692,30.251811 C5.77638921,32.9736953 10.8502988,35.8824019 16.8762356,35.8824019 C19.0044142,35.8824019 20.7626202,35.4303058 22.2184256,34.7980361 C21.7019358,34.293417 21.209531,33.784809 20.75593,33.3160917 M82.3712166,15.9313346 C79.9921523,15.9313346 78.0031316,16.3621556 76.1940794,17.0768663 L76.1940794,28.9842797 L80.2162768,28.9842797 L80.2162768,19.4224472 C80.7943171,19.1664811 81.5222198,19.0242038 82.2728693,19.0242038 C84.449218,19.0242038 84.8653534,20.3406012 84.8653534,22.7759366 L84.8666916,28.9842797 L88.8888889,28.9842797 L88.8888889,22.1842226 C88.8888889,18.379302 87.6117141,15.9313346 82.3712166,15.9313346 M43.3333333,30 L47.7777778,30 L47.7777778,12.2222222 L43.3333333,12.2222222 L43.3333333,30 Z M52.1488889,28.8888889 L56.6666667,28.8888889 L51.9322222,22.0711111 L56.2755556,16.6666667 L51.9355556,16.6666667 L47.7777778,22.2077778 L52.1488889,28.8888889 Z" id="Shape"></path>
            <path d="M59.1701846,17.3838566 L59.1701846,34.4444444 L63.1852687,34.4444444 L63.1852687,29.573655 C64.0426773,29.7309297 64.7138676,29.7687296 65.4681192,29.7687296 C69.8958313,29.7687296 72.2222222,27.2131851 72.2222222,22.9377444 C72.2222222,18.6285538 69.9333429,16.220834 65.1874519,16.220834 C63.0633559,16.220834 60.8421314,16.690633 59.1701846,17.3838566 M65.1573087,19.3170523 C66.9156663,19.3170523 68.0785268,20.4199999 68.0785268,22.9667694 C68.0785268,25.434564 67.1608316,26.7818611 64.9925254,26.7818611 C64.3702342,26.7818611 63.5858393,26.6536113 63.1852687,26.4976867 L63.1852687,19.7031514 C63.7533019,19.4385521 64.4445877,19.3170523 65.1573087,19.3170523 M17.6950489,17.7655007 L17.6950489,15.7600801 C17.2174454,15.6237304 16.6480726,15.5555556 16.0760202,15.5555556 C13.7523087,15.5555556 12.6102136,17.1364021 12.6102136,18.7354736 C12.6102136,20.2575952 13.1661894,21.7081671 15.260812,24.97921 C16.1101826,24.8664853 16.959553,24.7935854 17.7908376,24.7713104 C15.9654949,21.3578429 15.5200442,20.1603954 15.5200442,19.2876224 C15.5200442,18.2710746 16.1001348,17.7526757 17.2810812,17.7526757 C17.4398359,17.7526757 17.5697869,17.7560507 17.6950489,17.7655007 M11.3634877,20.7252342 C11.1926758,20.2669102 11.0680837,19.5304869 11.0185147,18.996563 C9.1697272,18.9351382 7.77777778,19.9969108 7.77777778,21.5062076 C7.77777778,22.7178299 8.39136087,23.7937776 10.9428216,25.9726728 C11.5785097,25.7607232 12.4573537,25.5082738 13.1961987,25.3469491 C10.6996658,23.0020043 10.3138319,22.3783057 10.3138319,21.6776571 C10.3138319,21.1633083 10.6681829,20.8271591 11.3634877,20.7252342 M19.4030338,17.7655007 L19.4030338,15.7600801 C19.8806372,15.6237304 20.4493404,15.5555556 21.0227324,15.5555556 C23.3451042,15.5555556 24.4878692,17.1364021 24.4878692,18.7354736 C24.4878692,20.2575952 23.9318933,21.7081671 21.8366009,24.97921 C20.9872303,24.8664853 20.1391996,24.7935854 19.3072452,24.7713104 C21.1325879,21.3578429 21.5780386,20.1603954 21.5780386,19.2876224 C21.5780386,18.2710746 20.9986178,17.7526757 19.8163317,17.7526757 C19.657577,17.7526757 19.5282959,17.7560507 19.4030338,17.7655007 M25.7338582,20.7252342 C25.9046701,20.2669102 26.0299322,19.5304869 26.0788313,18.996563 C27.9289584,18.9351382 29.320238,19.9969108 29.320238,21.5062076 C29.320238,22.7178299 28.705985,23.7937776 26.1545243,25.9726728 C25.5188362,25.7607232 24.6399922,25.5082738 23.901817,25.3469491 C26.3983499,23.0020043 26.7848537,22.3783057 26.7848537,21.6776571 C26.7848537,21.1633083 26.4298329,20.8271591 25.7338582,20.7252342 M18.5487064,29.0387861 C20.419599,29.0387861 22.324654,29.2858356 24.309421,29.8805093 L24.9859701,27.6381642 C22.7593869,26.9678907 20.5910807,26.6951913 18.5487064,26.6951913 C16.5070021,26.6951913 14.338026,26.9678907 12.1121127,27.6381642 L12.7886618,29.8805093 C14.772759,29.2858356 16.6784838,29.0387861 18.5487064,29.0387861 M18.8877778,14.4444444 L16.6666667,12.2211111 L18.8877778,10 L21.1111111,12.2211111 L18.8877778,14.4444444 Z" id="Shape"></path>
        </g>
    </g>
</svg>