<?xml version="1.0" encoding="UTF-8"?>
<svg width="140px" height="37px" viewBox="0 0 140 37" version="1.1" xmlns="http://www.w3.org/2000/svg" xmlns:xlink="http://www.w3.org/1999/xlink">
    <title>kruidvat</title>
    <g id="Page-1" stroke="none" stroke-width="1" fill="none" fill-rule="evenodd" fill-opacity="0.699999988">
        <g id="kruidvat" fill="#FFFFFF" fill-rule="nonzero">
            <path d="M18.6584507,36.8223005 C12.0687817,36.8846946 5.95280183,33.4049188 2.63982421,27.7082698 C-0.673153407,22.0116209 -0.673153407,14.9749988 2.63982421,9.27834989 C5.95280183,3.58170093 12.0687817,0.101925165 18.6584507,0.164319249 L121.735915,0.164319249 C131.791031,0.259525812 139.89218,8.43774338 139.89218,18.4933099 C139.89218,28.5488763 131.791031,36.7270939 121.735915,36.8223005 L18.6584507,36.8223005 Z M40.3107981,17.0070423 L40.3107981,9.16408451 C40.3107981,8.67769953 40.2319249,8.59225352 39.7389671,8.59225352 L37.0474178,8.59225352 C36.5330986,8.59225352 36.4755869,8.67112676 36.4755869,9.16408451 L36.4755869,27.1126761 C36.4755869,27.6269953 36.5330986,27.6861502 37.0474178,27.6861502 L39.7389671,27.6861502 C40.2253521,27.6861502 40.3107981,27.6269953 40.3107981,27.1126761 L40.3107981,19.2976526 L46.7734742,27.8570423 C46.9460094,28.0870892 47.0314554,28.1725352 47.1464789,28.1725352 L47.1842723,28.1725352 C47.2138498,28.1429577 47.2697183,28.1429577 47.4143192,28.0870892 C47.4701878,28.0870892 47.4997653,28.0575117 47.557277,28.0575117 L49.9333333,26.8267606 C50.2767606,26.6542254 50.3046948,26.5901408 50.3046948,26.4258216 C50.2819266,26.2743466 50.2117444,26.1339823 50.1042254,26.0248826 L43.6053991,17.9173709 L49.3302817,10.2748826 C49.4420218,10.1688559 49.5129739,10.0269518 49.5307512,9.87394366 C49.5307512,9.72934272 49.4453052,9.64389671 49.1593897,9.50093897 L47.0971831,8.47065728 C46.8671362,8.3556338 46.8392019,8.32769953 46.7537559,8.32769953 C46.6107981,8.32769953 46.4892019,8.41314554 46.3248826,8.64319249 L40.3107981,17.0070423 Z M54.7051643,15.6333333 C54.4192488,14.3171362 53.9903756,13.4873239 53.6453052,13.4856808 C53.5393131,13.495515 53.4343301,13.5142031 53.3314554,13.5415493 L51.0687793,14.3434272 C50.9207402,14.3767946 50.8147976,14.5071855 50.8124413,14.6589202 C50.8210935,14.7371531 50.8398735,14.8139303 50.8683099,14.8873239 L51.0424883,15.2899061 C51.4992958,16.3481221 51.6997653,17.3225352 51.6997653,18.7537559 L51.6997653,27.1981221 C51.6997653,27.6319249 51.757277,27.6910798 52.1565728,27.6910798 L54.7347418,27.6910798 C55.1701878,27.6910798 55.2276995,27.6269953 55.2276995,27.1981221 L55.2276995,17.9518779 C56.0870892,17.0070423 56.7460094,16.6061033 57.3457746,16.6061033 C57.7321837,16.6129349 58.112853,16.7008247 58.4631455,16.8640845 C58.5158385,16.883215 58.5714084,16.8932176 58.6274648,16.893662 C58.7408451,16.893662 58.7983568,16.8361502 58.8838028,16.6356808 L59.713615,14.3746479 C59.7443318,14.2814703 59.7636431,14.1849135 59.7711268,14.0870892 C59.7711268,13.7732394 59.0284038,13.4577465 58.1969484,13.4577465 C56.9629108,13.4577465 56.1643192,13.9161972 54.9910798,15.3194836 L54.7051643,15.6333333 Z M68.343662,24.3356808 C67.5220657,25.0504695 66.8007042,25.3659624 66.0333333,25.3659624 C64.7746479,25.3659624 64.3457746,24.7086854 64.3457746,22.8469484 L64.3457746,13.9441315 C64.3457746,13.6302817 64.2586854,13.4873239 64.0302817,13.4873239 C63.97277,13.4873239 63.8873239,13.5152582 63.8002347,13.5152582 L61.2253521,14.0870892 C60.8539906,14.1741784 60.7948357,14.2021127 60.7948357,14.6030516 L60.7948357,22.7384977 C60.7948357,25.370892 60.9394366,26.0298122 61.7413146,26.9746479 C62.3985915,27.7469484 63.486385,28.1774648 64.8896714,28.1774648 C66.491784,28.1774648 67.4941315,27.7469484 68.7528169,26.5457746 C68.9549296,27.5185446 69.2687793,28.0624413 69.5842723,28.0624413 L69.7485915,28.0624413 C69.7928497,28.0386188 69.8431348,28.0283332 69.8931925,28.0328638 L72.2100939,27.4840376 C72.4105634,27.4561033 72.4680751,27.3985915 72.4680751,27.2556338 C72.4571913,27.168 72.4379326,27.0816113 72.4105634,26.9976526 C71.9816901,26.1974178 71.8666667,25.5680751 71.8666667,24.192723 L71.8666667,13.9441315 C71.8666667,13.6302817 71.8091549,13.4873239 71.6086854,13.4873239 C71.5595063,13.4853568 71.510549,13.4949232 71.4657277,13.5152582 L71.3507042,13.5152582 L68.7429577,14.0870892 C68.3715962,14.1741784 68.343662,14.2021127 68.343662,14.6030516 L68.343662,24.3356808 Z M76.1521127,16.5206573 L76.1455399,27.1915493 C76.1455399,27.6253521 76.2096244,27.684507 76.6384977,27.684507 L79.2150235,27.684507 C79.6159624,27.684507 79.6734742,27.6204225 79.6734742,27.1915493 L79.6734742,14.4255869 C79.6734742,13.9901408 79.6159624,13.9326291 79.2150235,13.9326291 L74.2591549,13.9326291 C73.858216,13.9326291 73.8007042,13.9950704 73.8007042,14.4255869 L73.8007042,16.0276995 C73.8007042,16.4631455 73.858216,16.5206573 74.2591549,16.5206573 L76.1521127,16.5206573 Z M80.07277,9.85093897 C80.0655999,8.62125484 79.0709931,7.62591556 77.8413146,7.61784038 C76.9293212,7.61119316 76.1036994,8.15624245 75.7514622,8.99749456 C75.399225,9.83874668 75.5901932,10.8094481 76.2348496,11.4545792 C76.8795061,12.0997104 77.8500666,12.291393 78.6915778,11.9397752 C79.533089,11.5881573 80.0787458,10.762937 80.07277,9.85093897 Z M90.5267606,26.6542254 C90.7058685,27.4840376 91.0197183,28.0575117 91.307277,28.0607981 C91.4045786,28.0497605 91.5007736,28.0305215 91.5948357,28.0032864 L93.8838028,27.086385 C94.0579812,26.9943662 94.141784,26.9434272 94.141784,26.8300469 C94.1279702,26.7708861 94.1087177,26.7131287 94.0842723,26.6575117 C93.6274648,25.6847418 93.5699531,25.4267606 93.5699531,24.2535211 L93.5699531,8.02535211 C93.5699531,7.67535211 93.5124413,7.53239437 93.313615,7.53239437 C93.2544601,7.53239437 93.1690141,7.56197183 93.0556338,7.56197183 L90.4495305,8.10422535 C90.0765258,8.19131455 90.0485915,8.21924883 90.0485915,8.62018779 L90.0485915,14.2596244 C89.0462441,13.6861502 88.2739437,13.4577465 87.3011737,13.4577465 C85.8699531,13.4577465 84.6967136,14.0312207 83.7518779,15.1485915 C82.6016432,16.5206573 82.1086854,18.3248826 82.1086854,21.3302817 C82.1086854,25.5943662 83.7995305,28.1725352 86.6340376,28.1725352 C87.978169,28.1725352 89.2960094,27.6565728 90.5267606,26.6542254 Z M101.301174,24.5361502 C100.929812,22.6760563 100.671831,21.5307512 100.389202,20.5053991 L98.5816901,14.1511737 C98.4962441,13.8373239 98.4305164,13.7502347 98.2661972,13.7502347 L98.1528169,13.7502347 L98.0377934,13.7798122 L95.3183099,14.0657277 C94.9748826,14.1232394 94.8615023,14.1873239 94.8615023,14.3516432 C94.8741804,14.4509748 94.9030446,14.5475588 94.9469484,14.6375587 L99.4985915,27.863615 C99.613615,28.2070423 99.6711268,28.2349765 100.012911,28.2349765 L102.303521,28.2349765 C102.676526,28.2349765 102.706103,28.2070423 102.819484,27.863615 L107.428638,14.6375587 C107.456573,14.5816901 107.456573,14.5521127 107.484507,14.4946009 C107.508479,14.4509925 107.518784,14.4011836 107.514085,14.3516432 C107.514085,14.1807512 107.399061,14.093662 107.085211,14.0657277 L104.766667,13.7732394 C104.698475,13.7701762 104.630764,13.7602672 104.564554,13.743662 C104.364085,13.743662 104.308216,13.8307512 104.221127,14.1446009 L102.275587,20.4988263 C101.958451,21.5586854 101.646244,22.8190141 101.301174,24.5361502 Z M115.161502,19.1596244 L114.926526,19.1546948 C112.637559,19.1826291 111.521831,19.3847418 110.261502,19.9549296 C108.687324,20.6730047 107.915023,21.9612676 107.915023,23.87723 C107.915023,26.4537559 109.546714,28.0870892 112.093662,28.0870892 C113.524883,28.0870892 114.52723,27.6335681 115.644601,26.4833333 C115.958451,27.6269953 116.216432,28.1429577 116.502347,28.1429577 C116.611989,28.1348009 116.719068,28.1058005 116.81784,28.0575117 L118.981925,27.1751174 C119.109633,27.1354875 119.200596,27.0224325 119.211972,26.8892019 C119.202944,26.7886114 119.173892,26.6908417 119.126526,26.6016432 C118.661593,25.669851 118.435721,24.6370492 118.469249,23.5962441 L118.469249,17.9321596 C118.469249,17.099061 118.447887,16.6406103 118.30493,16.1246479 C117.816901,14.4075117 116.214789,13.4626761 113.723709,13.4626761 C112.379871,13.4680866 111.046586,13.7003003 109.780047,14.1495305 C109.178638,14.3795775 108.978169,14.5225352 108.978169,14.7788732 C108.990981,14.875889 109.010193,14.9719514 109.035681,15.0664319 L109.637089,16.7556338 C109.694601,16.9561033 109.780047,17.0119718 109.923005,17.0119718 C110.020129,17.0043186 110.116059,16.9855738 110.20892,16.9561033 C111.493897,16.4401408 112.469953,16.2117371 113.301408,16.2117371 C114.732629,16.2117371 115.161502,16.6981221 115.161502,18.3002347 L115.161502,19.1596244 Z M122.327465,13.9441315 L120.432864,13.9441315 C119.997418,13.9441315 119.939906,13.9737089 119.939906,14.4025822 L119.939906,16.0342723 C119.939906,16.4352113 120.003991,16.4910798 120.432864,16.4910798 L122.327465,16.4910798 L122.327465,23.7901408 C122.327465,25.1359155 122.412911,25.6518779 122.728404,26.3370892 C123.270657,27.513615 124.473474,28.170892 126.105164,28.170892 C127.224159,28.1546974 128.330528,27.9318639 129.368545,27.513615 C129.65446,27.3985915 129.769484,27.2852113 129.769484,27.0568075 C129.773956,27.0069393 129.764274,26.9568207 129.741549,26.9122066 L129.711972,26.7692488 L129.253521,24.8220657 C129.197653,24.6215962 129.110563,24.5361502 128.967606,24.5361502 C128.88734,24.5310672 128.807489,24.5511734 128.739202,24.593662 C127.70892,24.9946009 127.450939,25.0504695 126.907042,25.0504695 C126.04108,25.0504695 125.876761,24.7366197 125.876761,23.2758216 L125.876761,16.4910798 L128.617606,16.4910798 C128.946244,16.4910798 129.053052,16.4352113 129.110563,16.091784 L129.483568,14.4600939 C129.483568,14.4025822 129.511502,14.3746479 129.511502,14.3450704 L129.511502,14.2300469 C129.511502,14.0016432 129.426056,13.9441315 129.053052,13.9441315 L125.876761,13.9441315 L125.876761,10.021831 C125.876761,9.67840376 125.789671,9.5370892 125.589202,9.5370892 C125.543419,9.55215457 125.495959,9.56153631 125.447887,9.56502347 L125.362441,9.56502347 L122.784272,9.92981221 C122.383333,9.99389671 122.327465,10.0514085 122.327465,10.42277 L122.327465,13.9441315 Z M31.0875588,18.4924883 C31.0875588,15.2945751 29.8171926,12.2276401 27.5559265,9.96637396 C25.2946604,7.70510785 22.2277254,6.43474167 19.0298122,6.43474167 C14.1519454,6.43407718 9.75404609,9.37200954 7.88706025,13.8784437 C6.02007441,18.3848779 7.05172017,23.5722348 10.5008929,27.0214076 C13.9500657,30.4705803 19.1374226,31.5022261 23.6438568,29.6352402 C28.1502909,27.7682544 31.0882233,23.3703551 31.0875588,18.4924883 Z" id="Combined-Shape"></path>
            <path d="M90.0338028,16.7786385 C89.4153942,16.4542885 88.7274143,16.2851131 88.029108,16.2856794 C86.2840376,16.2856794 85.6251174,17.4884977 85.6251174,20.8652582 C85.6251174,24.1286385 86.2561033,25.4169014 87.8302817,25.4169014 C88.667905,25.4122433 89.4659731,25.0599268 90.0338028,24.4441315 L90.0338028,16.7786385 Z" id="Path"></path>
            <path d="M115.161502,21.4502347 L114.875587,21.4502347 C112.38615,21.4502347 111.268779,22.1370892 111.268779,23.6816901 C111.268779,24.7694836 112.04108,25.5992958 113.043427,25.5992958 C113.787793,25.5992958 114.502582,25.2575117 115.161502,24.5115023 L115.161502,21.4502347 Z" id="Path"></path>
            <path d="M18.9246479,20.820892 C19.4704377,21.3738747 19.6293556,22.2011931 19.3272921,22.9170381 C19.0252287,23.6328831 18.3216763,24.096267 17.5447274,24.0910967 C16.7677784,24.0859265 16.0704553,23.6132204 15.7779455,22.8934187 C15.4854356,22.1736171 15.6553498,21.348487 16.2084507,20.8028169 C16.9639149,20.0587746 18.1791528,20.0668615 18.9246479,20.820892 Z" id="Shape"></path>
            <path d="M22.5314554,24.4178404 C23.0775827,24.9704917 23.2370037,25.7977149 22.9353742,26.5137444 C22.6337447,27.2297738 21.9304719,27.6935848 21.1535186,27.6889199 C20.3765653,27.6841842 19.6789554,27.2118985 19.3860111,26.4922721 C19.0930668,25.7726457 19.2624845,24.9474118 19.8152582,24.4014085 C20.5702709,23.6569162 21.7855054,23.6642679 22.5314554,24.4178404 Z" id="Shape"></path>
            <path d="M16.2544601,13.4938967 C15.7013592,14.0395668 15.531445,14.8646969 15.8239549,15.5844986 C16.1164647,16.3043002 16.8137878,16.7770063 17.5907367,16.7821766 C18.3676857,16.7873468 19.0712381,16.3239629 19.3733015,15.6081179 C19.6753649,14.8922729 19.5164471,14.0649545 18.9706573,13.5119718 C18.2255431,12.7570379 17.0095554,12.7489461 16.2544601,13.4938967 Z" id="Shape"></path>
            <path d="M19.8152582,9.98075117 C19.2621573,10.5264212 19.0922432,11.3515514 19.384753,12.071353 C19.6772628,12.7911547 20.3745859,13.2638608 21.1515349,13.269031 C21.9284838,13.2742013 22.6320362,12.8108174 22.9340996,12.0949724 C23.2361631,11.3791274 23.0772452,10.551809 22.5314554,9.99882629 C21.7863412,9.2438924 20.5703535,9.23580053 19.8152582,9.98075117 Z" id="Shape"></path>
            <path d="M12.6295775,17.1269953 C12.0763212,17.6728108 11.9064735,18.4982236 12.1992773,19.2181354 C12.4920811,19.9380472 13.1898346,20.4105878 13.9669992,20.4153276 C14.7441639,20.4199966 15.4475869,19.9559377 15.7490846,19.2396234 C16.0505822,18.523309 15.8907395,17.6959005 15.3441315,17.1434272 C14.5987465,16.3900441 13.3840283,16.3826911 12.6295775,17.1269953 Z" id="Shape"></path>
        </g>
    </g>
</svg>