<svg width="515" height="383" viewBox="0 0 515 383" fill="none" xmlns="http://www.w3.org/2000/svg">
<g clip-path="url(#clip0)">
<path d="M125.568 315.943H388.414" stroke="#606264" stroke-width="0.75" stroke-miterlimit="10"/>
<path d="M430.76 315.944H463.701L480.98 298.649V254.011L475.557 248.583" stroke="#606264" stroke-width="0.75" stroke-miterlimit="10"/>
<path d="M82.5887 315.239H50.2469L33.6719 298.649V254.202L38.2872 249.583" stroke="#606264" stroke-width="0.75" stroke-miterlimit="10"/>
<path d="M38.4697 67.2044L33.8457 62.5849V18.1474L50.4208 2.60986H96.93L100.737 7.60344" stroke="#606264" stroke-width="0.75" stroke-miterlimit="10"/>
<path d="M415.271 7.11638L419.887 2.47949H464.284L479.807 19.0783V65.6299L474.818 69.4316" stroke="#606264" stroke-width="0.75" stroke-miterlimit="10"/>
<path d="M82.4238 288.235V315.134L84.6402 317.353H124.153L127.09 314.404V287.974L82.4238 288.235Z" stroke="#606264" stroke-width="0.75" stroke-miterlimit="10"/>
<path d="M387.414 288.235V315.134L389.639 317.353H429.152L432.089 314.404V287.974L387.414 288.235Z" stroke="#606264" stroke-width="0.75" stroke-miterlimit="10"/>
<path d="M127.064 311.367H387.311" stroke="#606264" stroke-width="0.75" stroke-miterlimit="10"/>
<path d="M432.256 311.655H460.739L475.384 296.987V21.7925L460.938 7.33375H320.724L313.771 0.330566L199.797 0.617653L193.582 7.70783H53.0983L38.5137 21.749V297.526L53.0983 311.359H82.2937" stroke="#606264" stroke-width="0.75" stroke-miterlimit="10"/>
<path d="M453.55 274.908C453.55 276.084 453.083 277.213 452.251 278.045C451.42 278.877 450.293 279.344 449.117 279.344H64.0578C62.8821 279.344 61.7546 278.877 60.9233 278.045C60.092 277.213 59.625 276.084 59.625 274.908V40.8882C59.625 39.7115 60.092 38.583 60.9233 37.7509C61.7546 36.9189 62.8821 36.4514 64.0578 36.4514H449.1C450.275 36.4514 451.403 36.9189 452.234 37.7509C453.065 38.583 453.532 39.7115 453.532 40.8882V274.908H453.55Z" stroke="#606264" stroke-width="0.76" stroke-miterlimit="10"/>
<path d="M168.905 18.791H159.283C157.397 18.791 155.867 20.3217 155.867 22.21V23.6106C155.867 25.4988 157.397 27.0295 159.283 27.0295H168.905C170.791 27.0295 172.321 25.4988 172.321 23.6106V22.21C172.321 20.3217 170.791 18.791 168.905 18.791Z" stroke="#606264" stroke-width="0.75" stroke-miterlimit="10"/>
<path d="M353.629 18.791H344.008C342.121 18.791 340.592 20.3217 340.592 22.21V23.6106C340.592 25.4988 342.121 27.0295 344.008 27.0295H353.629C355.516 27.0295 357.045 25.4988 357.045 23.6106V22.21C357.045 20.3217 355.516 18.791 353.629 18.791Z" stroke="#606264" stroke-width="0.75" stroke-miterlimit="10"/>
<path d="M50.0472 315.239L38.8958 316.291C38.6332 316.318 38.3796 316.402 38.1529 316.537C37.9261 316.673 37.7317 316.856 37.5833 317.074L7.67523 326.061C7.51097 326.3 7.40627 326.575 7.36986 326.863C7.33345 327.151 7.36639 327.443 7.46593 327.716C7.56547 327.988 7.72873 328.233 7.94205 328.429C8.15537 328.626 8.41257 328.768 8.69215 328.845L19.1222 331.698C19.2789 331.736 19.4392 331.756 19.6002 331.759H493.054C493.2 331.76 493.346 331.742 493.489 331.707L505.97 328.654C506.433 328.54 506.833 328.248 507.082 327.84C507.332 327.433 507.41 326.943 507.3 326.479C507.247 326.26 507.153 326.053 507.021 325.87L476.548 317.231C476.391 317.005 476.184 316.818 475.942 316.686C475.701 316.553 475.433 316.477 475.158 316.465L463.711 315.97" stroke="#606264" stroke-width="0.75" stroke-miterlimit="10"/>
<path d="M8.85693 323.999L2.07741 326C1.7773 326.08 1.4959 326.218 1.2494 326.407C1.0029 326.596 0.796151 326.832 0.641059 327.101C0.485966 327.371 0.385587 327.668 0.345694 327.976C0.305801 328.284 0.327182 328.597 0.408608 328.897V328.897C0.512694 329.29 0.713668 329.65 0.993094 329.945C1.27252 330.24 1.62145 330.46 2.00788 330.585L18.5221 335.596C18.7474 335.665 18.9817 335.7 19.2174 335.7H71.2719C71.8822 335.7 72.4692 335.934 72.9111 336.355C73.353 336.777 73.6157 337.352 73.6448 337.962L75.4353 374.805C75.4624 375.265 75.6191 375.709 75.8872 376.084L77.4083 378.172C77.618 378.455 77.7613 378.782 77.8275 379.128C77.8937 379.475 77.8811 379.832 77.7907 380.173V380.338C77.6907 380.751 77.4826 381.13 77.1877 381.436C76.8929 381.741 76.522 381.963 76.1132 382.078L74.2097 382.6C74.0038 382.644 73.7944 382.67 73.5839 382.678H18.6177C18.3516 382.678 18.0873 382.634 17.8354 382.548C15.3235 381.678 1.32123 376.562 0.756275 373.622C0.11309 370.386 0.408608 328.984 0.408608 328.984" stroke="#606264" stroke-width="0.75" stroke-miterlimit="10"/>
<path d="M18.8613 335.683V382.609" stroke="#606264" stroke-width="0.75" stroke-miterlimit="10"/>
<path d="M78.0332 379.05H437.226" stroke="#606264" stroke-width="0.75" stroke-miterlimit="10"/>
<path d="M506.143 323.999L512.913 326C513.214 326.079 513.497 326.217 513.744 326.405C513.991 326.594 514.199 326.829 514.355 327.099C514.511 327.368 514.612 327.666 514.653 327.974C514.693 328.283 514.672 328.597 514.591 328.897V328.897C514.484 329.285 514.281 329.639 514.002 329.928C513.722 330.217 513.375 330.431 512.992 330.55L496.477 335.561C496.253 335.623 496.023 335.658 495.791 335.665H443.745C443.135 335.667 442.549 335.902 442.108 336.323C441.667 336.744 441.403 337.318 441.372 337.927L439.582 374.77C439.554 375.231 439.398 375.674 439.13 376.049L437.609 378.137C437.392 378.424 437.243 378.755 437.17 379.108C437.098 379.46 437.105 379.824 437.191 380.173V380.338C437.295 380.749 437.504 381.127 437.798 381.432C438.093 381.737 438.462 381.96 438.869 382.078L440.781 382.6C440.986 382.651 441.196 382.677 441.407 382.678H496.295C496.563 382.674 496.83 382.63 497.086 382.548C499.598 381.678 513.6 376.562 514.156 373.622C514.808 370.386 514.504 328.984 514.504 328.984" stroke="#606264" stroke-width="0.75" stroke-miterlimit="10"/>
<path d="M496.131 335.683V382.609" stroke="#606264" stroke-width="0.75" stroke-miterlimit="10"/>
</g>
<defs>
<clipPath id="clip0">
<rect width="515" height="383" fill="white"/>
</clipPath>
</defs>
</svg>
