<?xml version="1.0" encoding="UTF-8"?>
<svg width="160px" height="21px" viewBox="0 0 160 21" version="1.1" xmlns="http://www.w3.org/2000/svg" xmlns:xlink="http://www.w3.org/1999/xlink">
    <!-- Generator: Sketch 51.3 (57544) - http://www.bohemiancoding.com/sketch -->
    <title>mediamarkt</title>
    <desc>Created with Sketch.</desc>
    <defs></defs>
    <g id="Page-1" stroke="none" stroke-width="1" fill="none" fill-rule="evenodd">
        <g id="logos" transform="translate(-243.000000, -26.000000)" fill="rgba(255,255,255,0.7)" fill-rule="nonzero">
            <path d="M382.789244,33.6899898 L382.837495,33.3914709 C382.861165,33.2717058 382.82657,33.1465781 382.748276,33.0518386 C382.667251,32.9588866 382.54981,32.9034729 382.425996,32.9034729 L380.24105,32.9034729 C380.038942,32.9007916 379.862326,33.0411134 379.824089,33.2377426 L379.763093,33.5621808 L377.428841,46.0865679 C377.407902,46.2072268 377.445228,46.3332482 377.527164,46.4270939 C377.61001,46.5200459 377.735644,46.5754596 377.861279,46.5727784 L378.939186,46.5566905 L379.952455,46.5566905 C380.154562,46.5566905 380.322985,46.4181563 380.363043,46.2277834 L381.964426,38.4546731 C382.493366,36.4848059 383.822541,35.8984934 384.998771,35.7277835 C385.061588,35.7197395 385.299201,35.7233146 385.349273,35.6911389 C384.543574,40.4039837 383.58948,45.9837844 383.573093,46.0767365 C383.552154,46.1947139 383.58766,46.3171603 383.666864,46.4110061 C383.746068,46.5030644 383.86533,46.5566905 383.985502,46.5566905 L386.338872,46.5566905 C386.521861,46.5566905 386.685732,46.4413943 386.738535,46.2671093 C386.814097,46.040092 387.376721,42.8377171 387.714478,40.9143258 C388.585725,42.2111849 391.36789,46.3672114 391.36789,46.3672114 C391.446184,46.4834015 391.578191,46.5522216 391.719303,46.5522216 L394.531511,46.5566905 C394.582493,46.5566905 394.628923,46.5450715 394.676264,46.5298774 C394.73635,46.5566905 394.802809,46.5745659 394.868357,46.5727784 L397.242666,46.5566905 C397.447504,46.5557967 397.619569,46.4110061 397.653254,46.2170583 C397.653254,46.2170583 399.372989,36.4660368 399.485878,35.8260981 C400.038487,35.8252043 402.211599,35.822523 402.211599,35.822523 C402.415527,35.822523 402.590322,35.6777324 402.625828,35.4802094 L402.992717,33.383427 C402.997269,33.360189 403,33.3387385 403,33.313713 C403,33.2189734 402.964495,33.1242339 402.902588,33.0500511 C402.822473,32.9570991 402.705032,32.9034729 402.578487,32.9034729 L399.893734,32.9034729 C400.024831,32.1625383 400.502788,29.4284985 400.502788,29.4284985 C400.505519,29.4043667 400.50825,29.3811287 400.50825,29.3587845 C400.50825,29.2595761 400.474566,29.1657303 400.409928,29.0924413 C400.331634,28.9977017 400.211462,28.9458631 400.089469,28.9458631 L397.729727,28.9458631 C397.525798,28.9458631 397.351003,29.0906537 397.315497,29.2872829 C397.315497,29.2872829 396.7902,32.3430797 396.692787,32.9034729 C396.479755,32.9097293 396.25944,32.9141982 396.25944,32.9141982 L395.89164,32.9168795 L395.501081,32.9097293 C395.350866,32.9061542 395.217038,32.9821246 395.138744,33.1009959 C395.063181,32.9874872 394.935726,32.9141982 394.792794,32.9141982 L392.632428,32.9097293 L391.999704,32.9097293 C391.882263,32.9097293 391.772105,32.9588866 391.69017,33.0420072 C391.69017,33.0420072 389.517059,35.4873595 388.362678,36.7145046 C388.700435,34.7705567 389.631768,29.4338611 389.631768,29.4338611 C389.634499,29.4088356 389.637231,29.3873851 389.637231,29.3623595 C389.637231,29.2667263 389.601725,29.1719867 389.537087,29.0986977 C389.457883,29.0039581 389.340442,28.9512257 389.216628,28.9512257 L386.86599,28.9458631 C386.65933,28.9449693 386.482714,29.0888662 386.449029,29.2863892 C386.394406,29.604571 386.15042,31.0247702 385.823588,32.9168795 C385.819947,32.9106231 385.817216,32.9061542 385.812664,32.9007916 C385.729818,32.8051583 385.609646,32.7551073 385.48219,32.7595761 C384.480756,32.7881767 383.576735,33.1912666 382.789244,33.6899898 Z M394.564285,45.4153473 C393.596536,43.8887896 390.768851,39.4324566 390.520313,39.0391982 C390.847145,38.66024 394.289346,34.5426455 394.988529,33.7364658 L394.678995,35.3327375 C394.655325,35.4542901 394.68992,35.5794178 394.770034,35.6723698 C394.850149,35.7662155 394.96759,35.822523 395.094135,35.822523 L396.166579,35.822523 C396.044587,36.5500511 394.922981,43.2595761 394.564285,45.4153473 Z M313.851446,40.0849081 C313.360744,41.7669816 311.738421,43.3677222 310.155245,43.7448928 C308.94442,43.9021961 308.055876,43.790475 307.436807,43.3972166 C306.784965,42.9574821 306.458133,42.1942033 306.205044,41.5051073 C306.161345,41.258427 306.138585,41.0099591 306.138585,40.7677477 C306.138585,39.2358274 306.973417,37.7593207 308.509252,36.6287028 C309.392335,36.0218335 310.591324,35.7930286 311.64374,36.0298774 C312.237317,36.1639428 313.049389,36.5107252 313.556479,37.4116445 C313.840522,37.9005363 313.991647,38.5199183 313.991647,39.1241062 C313.991647,39.4583759 313.944307,39.7863892 313.851446,40.0849081 Z M301.882491,29.2738764 L301.374491,31.9819969 C301.35082,32.1026558 301.384505,32.2286772 301.46462,32.3260981 C301.544735,32.4190501 301.663086,32.4744637 301.791451,32.4744637 L304.246785,32.4744637 C304.448893,32.4744637 304.624599,32.3332482 304.661015,32.1348315 L305.122585,29.4508427 C305.142613,29.3310776 305.109839,29.2050562 305.031545,29.1112104 C304.951431,29.0173647 304.833079,28.961951 304.711086,28.9610572 L302.297631,28.9413943 C302.095523,28.9396067 301.921638,29.0808223 301.882491,29.2738764 Z M296.578533,40.0849081 C296.670483,39.7863892 296.715092,39.4583759 296.715092,39.1241062 C296.715092,38.5199183 296.565787,37.9005363 296.282655,37.4116445 C295.772834,36.5107252 294.961672,36.1639428 294.367185,36.0298774 C293.3175,35.7930286 292.115779,36.0218335 291.232697,36.6287028 C289.699593,37.7593207 288.86203,39.2358274 288.86203,40.7677477 C288.86203,41.0099591 288.8857,41.258427 288.929399,41.5051073 C289.182489,42.1942033 289.50932,42.9574821 290.162073,43.3972166 C290.781141,43.790475 291.670596,43.9021961 292.8796,43.7448928 C294.463687,43.3677222 296.084189,41.7669816 296.578533,40.0849081 Z M276.436967,38.1525792 C277.442042,38.1436415 282.255297,38.098953 282.948108,38.0926966 C282.898036,37.6350868 282.652229,37.2060776 282.137857,36.7002043 C281.56977,36.2229316 280.791383,35.9985955 279.686164,35.9923391 C278.488996,36.1567927 277.09063,36.929903 276.436967,38.1525792 Z M375.111887,40.0849081 C374.622095,41.7669816 373.000683,43.3677222 371.415686,43.7448928 C370.203951,43.9021961 369.315406,43.790475 368.69998,43.3972166 C368.046316,42.9574821 367.718574,42.1942033 367.465485,41.5051073 C367.423607,41.258427 367.398116,41.0099591 367.398116,40.7677477 C367.398116,39.2358274 368.233857,37.7593207 369.771514,36.6287028 C370.651865,36.0218335 371.853586,35.7930286 372.905091,36.0298774 C373.497758,36.1639428 374.311651,36.5107252 374.81783,37.4116445 C375.099142,37.9005363 375.251178,38.5199183 375.251178,39.1241062 C375.251178,39.4583759 375.204748,39.7863892 375.111887,40.0849081 Z M243,46.3448672 L243,46.0883555 C243.012746,46.0615423 243.029133,46.035623 243.050072,46.0132788 L260.545121,26.2180797 C260.606118,26.1519408 260.691695,26.1126149 260.784555,26.1126149 L263.609509,26.1126149 C263.702369,26.1126149 263.791588,26.1546221 263.852584,26.2261236 C263.898104,26.2815373 263.924505,26.3539326 263.924505,26.4209653 C263.924505,26.4406282 263.919953,26.4638662 263.916312,26.4844229 C263.916312,26.4844229 261.724993,37.1086568 261.318046,39.0302605 C262.697294,37.5001277 272.880966,26.2180797 272.880966,26.2180797 C272.939231,26.1492594 273.026629,26.1126149 273.114937,26.1126149 L275.773289,26.1126149 C275.870701,26.1126149 275.962651,26.1555158 276.022737,26.2305924 C276.081913,26.305669 276.103762,26.4048774 276.079182,26.4960419 L273.288823,37.6181052 C273.311583,37.5769918 273.331611,37.5367722 273.35255,37.4974464 C274.680816,34.9618233 277.204429,33.1796476 279.935612,32.8516343 C279.943806,32.8498468 279.954731,32.8498468 279.965655,32.8498468 C282.435556,32.7265066 284.341921,33.6444076 285.485377,35.4980848 C285.49175,35.5079162 285.496302,35.5168539 285.503585,35.5275792 C285.914173,36.337334 286.220065,37.4250511 286.274689,38.5449438 C286.740811,37.2096527 287.56927,35.9744637 288.720919,34.9323289 C290.672804,33.1501532 293.052575,32.4485444 295.425063,32.9597804 C295.449644,32.965143 295.478776,32.9749745 295.503357,32.9848059 L295.723673,33.0777579 C296.249881,33.3003064 296.822519,33.5469867 297.306848,33.9733146 C297.56358,32.7881767 298.315565,29.2738764 298.315565,29.2738764 C298.357444,29.0835036 298.529508,28.9458631 298.728884,28.9458631 L300.91019,28.9458631 C301.036734,28.9458631 301.155086,29.0012768 301.2352,29.093335 C301.315315,29.1880746 301.349,29.3132022 301.32715,29.4338611 L298.145322,46.2769408 C298.107085,46.47357 297.9332,46.6147855 297.729271,46.6147855 L295.565264,46.6085291 C295.438719,46.6085291 295.318547,46.5566905 295.238432,46.4628447 C295.174705,46.3877682 295.14102,46.2939223 295.14102,46.198289 C295.14102,46.1723697 295.143751,46.1464504 295.149214,46.1223187 C295.149214,46.1223187 295.203837,45.8398877 295.238432,45.6530899 C293.474088,46.7220378 291.687894,47.1385343 290.014589,46.8409091 C288.10094,46.4673136 286.319298,44.630618 285.960603,42.6625383 C285.86228,42.1352145 285.818581,41.6069969 285.824044,41.0868233 C285.748481,41.153856 285.648337,41.1940756 285.540911,41.1940756 C285.540911,41.1940756 275.969024,41.1976507 275.492888,41.1985444 C275.481963,41.238764 275.47559,41.2754086 275.47559,41.3183095 C275.47559,41.4693565 275.528393,41.6650919 275.597583,41.8885342 C275.597583,41.8885342 275.626716,41.9904239 275.640371,42.0342186 C276.117418,43.1844995 277.261784,43.9057712 278.560006,43.875383 C279.850946,43.8467824 281.047204,43.2399132 282.109634,42.0735444 C282.187928,41.9850613 282.303548,41.9350102 282.4219,41.9350102 L284.66238,41.9350102 C284.807133,41.9350102 284.942782,42.0082993 285.018344,42.1289581 C285.096638,42.2487232 285.106653,42.3997702 285.045656,42.5275792 C283.773835,45.1525792 280.921569,46.9159858 277.928193,46.9159858 C275.846121,46.8364403 274.098163,45.8416752 273.124952,44.1783708 C272.640622,43.2917518 272.411202,42.191522 272.424858,41.0653728 L271.110249,46.3055413 C271.074743,46.4467568 270.946378,46.543284 270.801625,46.543284 L267.967567,46.543284 C267.871976,46.543284 267.780026,46.4994893 267.721761,46.4244126 C267.675331,46.3681053 267.65166,46.3001788 267.65166,46.2331461 C267.65166,46.2072268 267.655302,46.1848824 267.659854,46.1607507 C268.766894,41.6364913 270.319116,35.2058223 270.88265,32.6612615 C269.527073,34.2191011 258.904591,46.415475 258.904591,46.415475 C258.846325,46.4842951 258.759838,46.5227273 258.667888,46.5227273 L256.273551,46.543284 C256.177049,46.543284 256.08783,46.5021705 256.026834,46.4270939 C255.981314,46.3725741 255.955823,46.3037538 255.955823,46.2331461 C255.955823,46.2116956 255.956734,46.1893514 255.962196,46.1679009 C256.975465,41.5900153 258.392949,35.0708631 258.891845,32.53524 C257.585429,34.0671604 247.050345,46.4333504 247.050345,46.4333504 C246.989348,46.5039581 246.895578,46.5450715 246.798166,46.543284 C245.980631,46.5155771 245.364294,46.5191522 244.648724,46.5227273 L243.284953,46.5227273 C243.162961,46.5254086 243.050982,46.4548007 243,46.3448672 Z M379.006555,33.0518386 C378.928261,32.9588866 378.80991,32.9034729 378.684275,32.9034729 L376.501149,32.9034729 C376.302683,32.9034729 376.128798,33.0402196 376.088741,33.2314862 L375.920318,34.0421348 C375.435078,33.615807 374.951658,33.3423136 374.258848,33.0777579 L374.041264,32.9848059 C374.014862,32.9749745 373.988461,32.965143 373.961149,32.9597804 C371.590482,32.4485444 369.20889,33.1501532 367.257915,34.9323289 C366.284703,35.8117978 365.546373,36.8315884 365.056581,37.9300306 L367.925234,26.4960419 C367.948904,26.4048774 367.927965,26.305669 367.867879,26.2305924 C367.808703,26.1555158 367.717664,26.1126149 367.620252,26.1126149 L364.96281,26.1126149 C364.86995,26.1126149 364.786194,26.1492594 364.726108,26.2180797 C364.726108,26.2180797 354.543346,37.5001277 353.164099,39.0302605 C353.570135,37.1086568 355.841569,26.4844229 355.841569,26.4844229 C355.841569,26.4638662 355.847031,26.4406282 355.847031,26.4209653 C355.847031,26.352145 355.825182,26.2815373 355.776931,26.2261236 C355.716845,26.1546221 355.626716,26.1126149 355.532945,26.1126149 L352.596923,26.1126149 C352.504063,26.1126149 352.417575,26.1519408 352.358399,26.2180797 L337.693766,42.8430797 C337.44796,40.4227528 336.274461,37.7870276 336.274461,37.7870276 C334.30892,33.8338866 329.936295,32.5531154 327.456381,34.8206078 L327.439083,34.8241828 L327.050345,35.1012513 C328.849284,32.2831971 333.413092,32.4083248 336.351845,35.7268897 C336.351845,35.7268897 337.65735,37.2677477 338.584132,39.5602656 C338.830849,38.7505107 338.981974,37.9121553 339.027494,37.0550306 C337.498031,35.0225996 335.773744,33.8294178 335.773744,33.8294178 C332.062066,31.3715526 327.618431,32.4101124 326.625191,35.590143 L326.612445,35.6035495 L326.420352,36.0334525 C326.541434,32.7077375 330.556274,30.5778856 334.789608,32.00881 C334.789608,32.00881 336.782461,32.7265066 338.794433,34.3183095 C338.767121,34.1913943 338.739809,34.0644791 338.704304,33.9375638 C338.48672,33.0974208 338.171723,32.3001788 337.764777,31.5583504 C335.41778,30.560904 333.338439,30.375 333.338439,30.375 C328.870223,30.0702247 325.553656,33.1456844 326.312925,36.3891726 L326.307463,36.4061542 L326.357535,36.8744893 C324.770717,33.9339888 327.161413,30.1220633 331.555887,29.2801328 C331.555887,29.2801328 333.596081,28.9324566 336.105128,29.2997957 C335.468762,28.6401941 334.742267,28.0619254 333.936568,27.5739275 C331.421148,27.8635087 329.544825,28.717952 329.544825,28.717952 C325.522703,30.6449183 324.215377,34.9394791 326.525047,37.3758938 L326.527778,37.3901941 L326.811821,37.7745148 C323.939527,36.0066394 324.069713,31.5270684 327.447277,28.6437692 C327.447277,28.6437692 329.025901,27.351379 331.373808,26.4370531 C330.405148,26.1519408 329.400983,26.0071502 328.387714,26 C326.424904,27.4666752 325.278717,29.0602656 325.278717,29.0602656 C322.776043,32.7059499 323.8321,37.0648621 327.071284,38.0417518 L327.083119,38.052477 L327.52375,38.2446374 C324.137083,38.1248723 321.967613,34.1833504 323.425154,30.02643 C323.425154,30.02643 324.096115,28.2344229 325.576416,26.3503575 C324.728839,26.5657559 323.926782,26.8803626 323.174796,27.2763023 C322.218881,29.5151941 322.040444,31.4636108 322.040444,31.4636108 C321.728179,35.8511236 324.863577,39.1071246 328.167399,38.3626149 L328.181965,38.3670838 L328.662653,38.3143514 C325.666545,39.8757661 321.780071,37.5269408 320.927032,33.2109295 C320.927032,33.2109295 320.584724,31.2830695 320.927032,28.880618 C320.213283,29.5446885 319.588752,30.3070735 319.071648,31.1579418 C319.392107,33.5255363 320.210551,35.264811 320.210551,35.264811 C322.174272,39.2161645 326.546897,40.4978294 329.027721,38.2294433 L329.045929,38.2258682 L329.433757,37.9496936 C327.636639,40.7677477 323.071011,40.64262 320.134989,37.3240552 C320.134989,37.3240552 318.629196,35.4766343 317.842616,33.3262257 C317.843526,33.2252298 317.812572,33.1287028 317.748845,33.0518386 C317.66782,32.9588866 317.549468,32.9034729 317.422013,32.9034729 L315.241619,32.9034729 C315.041332,32.9034729 314.869267,33.0402196 314.827389,33.2314862 C314.827389,33.2314862 314.659877,33.4808478 314.582493,33.9733146 C314.098163,33.5469867 313.524615,33.3003064 313.000228,33.0777579 L312.779002,32.9848059 C312.753511,32.9749745 312.725289,32.965143 312.699797,32.9597804 C310.330041,32.4485444 307.949359,33.1501532 305.997474,34.9323289 C304.844914,35.9744637 304.016455,37.2096527 303.546692,38.5449438 C303.546692,38.5449438 303.532126,38.5789071 303.506634,38.6325332 L304.434327,33.3861083 C304.454355,33.267237 304.420671,33.1430031 304.340556,33.0500511 C304.25862,32.9570991 304.140269,32.9025792 304.016455,32.9034729 L301.689487,32.9061542 C301.485559,32.9079418 301.311673,33.0500511 301.274347,33.2484678 L298.869996,46.1223187 C298.849057,46.2429776 298.882741,46.3672114 298.962856,46.4628447 C299.04206,46.5557967 299.161322,46.6085291 299.286046,46.6085291 L301.738649,46.6147855 C301.946218,46.6147855 302.121925,46.4691012 302.155609,46.2697906 L303.082391,41.0323034 C303.092405,41.0653728 303.100599,41.0868233 303.100599,41.0868233 C303.092405,41.6069969 303.136104,42.1352145 303.235337,42.6625383 C303.595853,44.630618 305.373853,46.4673136 307.290234,46.8409091 C308.961718,47.1385343 310.749733,46.7220378 312.514077,45.6530899 C312.479482,45.8398877 312.423948,46.1223187 312.423948,46.1223187 C312.419396,46.1464504 312.417575,46.1723697 312.417575,46.198289 C312.417575,46.2939223 312.45126,46.3877682 312.514077,46.4628447 C312.593281,46.5566905 312.712543,46.6085291 312.840909,46.6085291 L315.004916,46.6147855 C315.208844,46.6147855 315.384551,46.47357 315.420056,46.2769408 L317.325511,36.1442799 C318.751189,37.8066905 320.616587,39.2259959 320.616587,39.2259959 C324.327355,41.6856486 328.768259,40.6470889 329.761499,37.467952 L329.776066,37.4545454 L329.969069,37.022855 C329.847987,40.34857 325.832237,42.4793156 321.597993,41.0466037 C321.597993,41.0466037 319.772652,40.3878958 317.848988,38.9346272 C317.865375,39.0034474 317.879031,39.0749489 317.897239,39.1446629 C318.125748,40.0151941 318.456221,40.840143 318.884107,41.6069969 C321.121856,42.5114913 323.051892,42.6822012 323.051892,42.6822012 C327.517377,42.9887641 330.834855,39.9115169 330.075585,36.6680286 L330.081958,36.651047 L330.029155,36.1809244 C331.617794,39.1214249 329.226188,42.9396067 324.830803,43.7752809 C324.830803,43.7752809 322.909871,44.1050817 320.501878,43.7860061 C321.078157,44.3821502 321.728179,44.9166241 322.44557,45.3742339 C324.940961,45.0783963 326.789972,44.2337845 326.789972,44.2337845 C330.813915,42.307712 332.122152,38.0122574 329.811571,35.578524 L329.807019,35.5597549 L329.524797,35.179903 C332.397091,36.9459908 332.268726,41.4237743 328.890252,44.3097548 C328.890252,44.3097548 327.278854,45.6235955 324.897262,46.5397089 C325.554567,46.7568949 326.229169,46.9115168 326.912875,47 L327.886997,47 C329.888044,45.5190245 331.05517,43.8914709 331.05517,43.8914709 C333.560575,40.2466803 332.504518,35.8850868 329.264424,34.9108784 L329.250768,34.8974719 L328.812868,34.7070991 C332.200446,34.8277579 334.369916,38.7692799 332.912375,42.9262002 C332.912375,42.9262002 332.184059,44.8710419 330.56993,46.8435904 C330.700116,46.8149898 330.82484,46.7890705 330.953206,46.756001 C331.77165,46.5522216 332.541844,46.2545966 333.258324,45.8917263 C334.259758,43.604571 334.443658,41.5837589 334.443658,41.5837589 C334.757744,37.2016088 331.621435,33.9420327 328.315793,34.6874362 L328.302137,34.6838611 L327.82418,34.7339122 C330.817557,33.1751788 334.705852,35.5231103 335.560712,39.8391215 C335.560712,39.8391215 336.054146,41.8206078 335.684526,44.1676456 C335.613515,44.506384 335.468762,44.9979571 335.190181,45.5217059 C335.105515,45.6673902 334.999909,45.8398877 334.872454,46.040092 C334.875185,46.0374106 334.876095,46.0347293 334.876095,46.0347293 C334.875185,46.040092 334.869723,46.0445608 334.866081,46.0508172 C334.86335,46.0570735 334.86335,46.0579674 334.86335,46.0624362 C334.813278,46.1464504 334.802353,46.2510215 334.845142,46.3448672 C334.895214,46.4548007 335.008103,46.5254086 335.132827,46.5227273 L336.494777,46.5227273 C337.210347,46.5191522 337.825773,46.5155771 338.644218,46.543284 C338.74163,46.5450715 338.83449,46.5039581 338.897308,46.4333504 C338.897308,46.4333504 349.432392,34.0671604 350.737897,32.53524 C350.238091,35.0708631 348.821517,41.5900153 347.807338,46.1679009 C347.803696,46.1893514 347.801875,46.2116956 347.801875,46.2331461 C347.801875,46.3037538 347.825546,46.3725741 347.870155,46.4270939 C347.930241,46.5021705 348.021281,46.543284 348.119603,46.543284 L350.514851,46.5227273 C350.60589,46.5227273 350.692378,46.4842951 350.751553,46.415475 C350.751553,46.415475 361.371304,34.2191011 362.730523,32.6612615 C362.164258,35.2058223 360.613856,41.6364913 359.508637,46.1607507 C359.501354,46.1848824 359.497713,46.2072268 359.497713,46.2331461 C359.497713,46.3001788 359.521383,46.3681053 359.565992,46.4244126 C359.626989,46.4994893 359.716207,46.543284 359.81453,46.543284 L362.647677,46.543284 C362.79243,46.543284 362.920796,46.4467568 362.955391,46.3055413 L364.181692,41.4219867 L364.351936,40.735572 C364.357398,40.9313075 364.360129,41.0868233 364.360129,41.0868233 C364.354667,41.6069969 364.398366,42.1352145 364.497599,42.6625383 C364.855384,44.630618 366.637026,46.4673136 368.549764,46.8409091 C370.221249,47.1385343 372.011084,46.7220378 373.775428,45.6530899 C373.739923,45.8398877 373.685299,46.1223187 373.685299,46.1223187 C373.680747,46.1464504 373.678016,46.1723697 373.678016,46.198289 C373.678016,46.2939223 373.710791,46.3877682 373.772697,46.4628447 C373.855543,46.5566905 373.974805,46.6085291 374.098618,46.6085291 L376.264447,46.6147855 C376.470196,46.6147855 376.644081,46.47357 376.680497,46.2769408 L378.636024,36.0754597 L379.104877,33.3262257 C379.106698,33.2252298 379.074834,33.1287028 379.006555,33.0518386 Z" id="mediamarkt"></path>
        </g>
    </g>
</svg>