
<svg width="31px" height="40px" viewBox="0 0 31 40" version="1.1" xmlns="http://www.w3.org/2000/svg" xmlns:xlink="http://www.w3.org/1999/xlink">
    <g id="Page-1" stroke="none" stroke-width="1" fill="none" fill-rule="evenodd">
        <g id="official" fill="#9656F6" fill-rule="nonzero">
            <path d="M15.5,22.265625 C14.3026808,22.265625 13.1834645,22.0377627 12.1423174,21.5820312 C11.1011703,21.1262998 10.1901802,20.5078164 9.4093199,19.7265625 C8.62845957,18.9453086 8.01028775,18.027349 7.55478589,16.9726562 C7.09928404,15.9179635 6.87153652,14.8046934 6.87153652,13.6328125 C6.87153652,12.4348898 7.09928404,11.3151094 7.55478589,10.2734375 C8.01028775,9.23176563 8.62845957,8.32031641 9.4093199,7.5390625 C10.1901802,6.75780859 11.1011703,6.1393252 12.1423174,5.68359375 C13.1834645,5.2278623 14.3026808,5 15.5,5 C16.6973192,5 17.8165355,5.2278623 18.8576826,5.68359375 C19.8988297,6.1393252 20.8098198,6.75780859 21.5906801,7.5390625 C22.3715365,8.32031641 22.9897122,9.23176563 23.4452141,10.2734375 C23.900716,11.3151094 24.1284635,12.4348898 24.1284635,13.6328125 C24.1284635,14.8046934 23.900716,15.9179635 23.4452141,16.9726562 C22.9897122,18.027349 22.3715365,18.9453086 21.5906801,19.7265625 C20.8098198,20.5078164 19.8988297,21.1262998 18.8576826,21.5820312 C17.8165355,22.0377627 16.6973192,22.265625 15.5,22.265625 Z M15.5,7.421875 C13.808136,7.421875 12.3570589,8.0273377 11.1467254,9.23828125 C9.93639193,10.4492248 9.33123426,11.9140539 9.33123426,13.6328125 C9.33123426,15.3515711 9.93639193,16.8098898 11.1467254,18.0078125 C12.3570589,19.2057352 13.808136,19.8046875 15.5,19.8046875 C17.2178927,19.8046875 18.6754768,19.1992248 19.872796,17.9882812 C21.0701151,16.7773377 21.6687657,15.3255293 21.6687657,13.6328125 C21.6687657,11.9140539 21.0636081,10.4492248 19.8532746,9.23828125 C18.6429411,8.0273377 17.191864,7.421875 15.5,7.421875 Z M6.8324937,34.609375 L0,35.5078125 L5.27078086,22.421875 C4.22963375,21.2499941 3.41624978,19.9023514 2.83060453,18.3789062 C2.24495929,16.8554611 1.95214106,15.2474043 1.95214106,13.5546875 C1.95214106,11.6796781 2.30352293,9.9218832 3.00629723,8.28125 C3.70907152,6.6406168 4.67211815,5.2018291 5.89546599,3.96484375 C7.11881384,2.7278584 8.55687671,1.75781602 10.2096977,1.0546875 C11.8625188,0.351558984 13.6259352,0 15.5,0 C17.3740648,0 19.1309742,0.358069336 20.7707809,1.07421875 C22.4105875,1.79036816 23.8486504,2.76041055 25.0850126,3.984375 C26.3213748,5.20833945 27.2909285,6.64712715 27.9937028,8.30078125 C28.6964771,9.95443535 29.0478589,11.7317613 29.0478589,13.6328125 C29.0478589,15.3255293 28.7550407,16.9270758 28.1693955,18.4375 C27.5837502,19.9479242 26.7703662,21.3020773 25.7292191,22.5 L31,35.5078125 L24.1675063,34.609375 L19.7947103,40 L15.5,27.5 L11.2052897,40 L6.8324937,34.609375 Z M10.268262,35 L13.0793451,26.875 C11.9861406,26.6927074 10.9450091,26.3737002 9.9559194,25.9179688 C8.96682965,25.4622373 8.04282545,24.9088574 7.18387909,24.2578125 L3.86523929,32.5 L7.80856423,31.9921875 L10.268262,35 Z M23.1133501,31.9921875 L27.1347607,32.5 L23.8161209,24.296875 C22.9571745,24.9739617 22.0331704,25.533852 21.0440806,25.9765625 C20.0549909,26.419273 19.0138594,26.7447906 17.9206549,26.953125 L20.731738,35 L23.1133501,31.9921875 Z M15.5,2.5 C13.964308,2.5 12.5197381,2.78645547 11.1662469,3.359375 C9.81275562,3.93229453 8.63497562,4.72655742 7.63287154,5.7421875 C6.63076745,6.75781758 5.83690469,7.93619121 5.25125945,9.27734375 C4.6656142,10.6184963 4.37279597,12.0703047 4.37279597,13.6328125 C4.37279597,15.1692785 4.6656142,16.6080662 5.25125945,17.9492188 C5.83690469,19.2903713 6.63076745,20.4687449 7.63287154,21.484375 C8.63497562,22.5 9.81275562,23.3007783 11.1662469,23.8867188 C12.5197381,24.4726592 13.964308,24.765625 15.5,24.765625 C17.035692,24.765625 18.4802619,24.4726592 19.8337531,23.8867188 C21.1872444,23.3007783 22.3650244,22.5 23.3671285,21.484375 C24.3692326,20.4687449 25.1630953,19.2903713 25.7487406,17.9492188 C26.3343858,16.6080662 26.627204,15.1692785 26.627204,13.6328125 C26.627204,12.0963465 26.3343858,10.6510484 25.7487406,9.296875 C25.1630953,7.94270156 24.3627204,6.76432793 23.3476071,5.76171875 C22.3324886,4.75910957 21.1547086,3.96484668 19.8142317,3.37890625 C18.4737548,2.79296582 17.035692,2.5 15.5,2.5 Z"></path>
        </g>
    </g>
</svg>