<?xml version="1.0" encoding="UTF-8"?>
<svg width="406px" height="304px" viewBox="0 0 406 304" version="1.1" xmlns="http://www.w3.org/2000/svg" xmlns:xlink="http://www.w3.org/1999/xlink">
    <!-- Generator: Sketch 60 (88103) - https://sketch.com -->
    <title>Illustration</title>
    <desc>Created with Sketch.</desc>
    <g id="Page-1" stroke="none" stroke-width="1" fill="none" fill-rule="evenodd">
        <g id="01" transform="translate(-755.000000, -138.000000)">
            <g id="Illustration" transform="translate(755.000000, 138.000000)">
                <path d="M375,29 C380.522847,29 385,33.4771525 385,39 L385,99.5 C385,103.436083 382.633308,106.986122 379,108.5 L373.615385,110.74359 C373.242738,110.898859 373,111.262966 373,111.666667 L373,118.333333 C373,118.737034 373.242738,119.101141 373.615385,119.25641 L379,121.5 C382.633308,123.013878 385,126.563917 385,130.5 L385,190.675445 C385,194.452408 382.583142,197.805619 379,199 L374.367544,200.544152 C373.55086,200.81638 373,201.580658 373,202.441518 L373,207.558482 C373,208.419342 373.55086,209.18362 374.367544,209.455848 L379,211 C382.583142,212.194381 385,215.547592 385,219.324555 L385,293 C385,298.522847 380.522847,303 375,303 L172,303 C166.477153,303 162,298.522847 162,293 L162,39 C162,33.4771525 166.477153,29 172,29 L375,29 Z" id="Shape" fill="#843CD4"></path>
                <path d="M334,209 C339.522847,209 344,213.477153 344,219 L344,281 C344,286.522847 339.522847,291 334,291 L304.162966,291 L294.376653,280.995617 L191.796292,280.995617 L181.837034,291 L152,291 C146.477153,291 142,286.522847 142,281 L142,219 C142,213.477153 146.477153,209 152,209 L334,209 Z M334,119 C339.522847,119 344,123.477153 344,129 L344,191 C344,196.522847 339.522847,201 334,201 L304.162966,201 L294.376653,190.995617 L191.796292,190.995617 L181.837034,201 L152,201 C146.477153,201 142,196.522847 142,191 L142,129 C142,123.477153 146.477153,119 152,119 L334,119 Z M334,29 C339.522847,29 344,33.4771525 344,39 L344,101 C344,106.522847 339.522847,111 334,111 L304.162966,111 L294.376653,100.995617 L191.796292,100.995617 L181.837034,111 L152,111 C146.477153,111 142,106.522847 142,101 L142,39 C142,33.4771525 146.477153,29 152,29 L334,29 Z" id="Shape" fill="#AA63F8"></path>
                <path d="M181.318438,227.730896 C182.069248,228.081005 182.394081,228.973475 182.043972,229.724285 L167.674951,260.53875 C167.324843,261.28956 166.432372,261.614393 165.681562,261.264284 C164.930752,260.914176 164.605919,260.021705 164.956028,259.270895 L179.325049,228.456431 C179.675157,227.705621 180.567628,227.380788 181.318438,227.730896 Z M199.318438,227.730896 C200.069248,228.081005 200.394081,228.973475 200.043972,229.724285 L185.674951,260.53875 C185.324843,261.28956 184.432372,261.614393 183.681562,261.264284 C182.930752,260.914176 182.605919,260.021705 182.956028,259.270895 L197.325049,228.456431 C197.675157,227.705621 198.567628,227.380788 199.318438,227.730896 Z M217.318438,227.730896 C218.069248,228.081005 218.394081,228.973475 218.043972,229.724285 L203.674951,260.53875 C203.324843,261.28956 202.432372,261.614393 201.681562,261.264284 C200.930752,260.914176 200.605919,260.021705 200.956028,259.270895 L215.325049,228.456431 C215.675157,227.705621 216.567628,227.380788 217.318438,227.730896 Z M235.318438,227.730896 C236.069248,228.081005 236.394081,228.973475 236.043972,229.724285 L221.674951,260.53875 C221.324843,261.28956 220.432372,261.614393 219.681562,261.264284 C218.930752,260.914176 218.605919,260.021705 218.956028,259.270895 L233.325049,228.456431 C233.675157,227.705621 234.567628,227.380788 235.318438,227.730896 Z M253.318438,227.730896 C254.069248,228.081005 254.394081,228.973475 254.043972,229.724285 L239.674951,260.53875 C239.324843,261.28956 238.432372,261.614393 237.681562,261.264284 C236.930752,260.914176 236.605919,260.021705 236.956028,259.270895 L251.325049,228.456431 C251.675157,227.705621 252.567628,227.380788 253.318438,227.730896 Z M271.318438,227.730896 C272.069248,228.081005 272.394081,228.973475 272.043972,229.724285 L257.674951,260.53875 C257.324843,261.28956 256.432372,261.614393 255.681562,261.264284 C254.930752,260.914176 254.605919,260.021705 254.956028,259.270895 L269.325049,228.456431 C269.675157,227.705621 270.567628,227.380788 271.318438,227.730896 Z M181.318438,137.730896 C182.069248,138.081005 182.394081,138.973475 182.043972,139.724285 L167.674951,170.53875 C167.324843,171.28956 166.432372,171.614393 165.681562,171.264284 C164.930752,170.914176 164.605919,170.021705 164.956028,169.270895 L179.325049,138.456431 C179.675157,137.705621 180.567628,137.380788 181.318438,137.730896 Z M199.318438,137.730896 C200.069248,138.081005 200.394081,138.973475 200.043972,139.724285 L185.674951,170.53875 C185.324843,171.28956 184.432372,171.614393 183.681562,171.264284 C182.930752,170.914176 182.605919,170.021705 182.956028,169.270895 L197.325049,138.456431 C197.675157,137.705621 198.567628,137.380788 199.318438,137.730896 Z M217.318438,137.730896 C218.069248,138.081005 218.394081,138.973475 218.043972,139.724285 L203.674951,170.53875 C203.324843,171.28956 202.432372,171.614393 201.681562,171.264284 C200.930752,170.914176 200.605919,170.021705 200.956028,169.270895 L215.325049,138.456431 C215.675157,137.705621 216.567628,137.380788 217.318438,137.730896 Z M235.318438,137.730896 C236.069248,138.081005 236.394081,138.973475 236.043972,139.724285 L221.674951,170.53875 C221.324843,171.28956 220.432372,171.614393 219.681562,171.264284 C218.930752,170.914176 218.605919,170.021705 218.956028,169.270895 L233.325049,138.456431 C233.675157,137.705621 234.567628,137.380788 235.318438,137.730896 Z M253.318438,137.730896 C254.069248,138.081005 254.394081,138.973475 254.043972,139.724285 L239.674951,170.53875 C239.324843,171.28956 238.432372,171.614393 237.681562,171.264284 C236.930752,170.914176 236.605919,170.021705 236.956028,169.270895 L251.325049,138.456431 C251.675157,137.705621 252.567628,137.380788 253.318438,137.730896 Z M271.318438,137.730896 C272.069248,138.081005 272.394081,138.973475 272.043972,139.724285 L257.674951,170.53875 C257.324843,171.28956 256.432372,171.614393 255.681562,171.264284 C254.930752,170.914176 254.605919,170.021705 254.956028,169.270895 L269.325049,138.456431 C269.675157,137.705621 270.567628,137.380788 271.318438,137.730896 Z M181.318438,47.7333059 C182.069248,48.0834144 182.394081,48.9758851 182.043972,49.726695 L167.674951,80.5411598 C167.324843,81.2919697 166.432372,81.6168025 165.681562,81.2666941 C164.930752,80.9165856 164.605919,80.0241149 164.956028,79.273305 L179.325049,48.4588402 C179.675157,47.7080303 180.567628,47.3831975 181.318438,47.7333059 Z M199.318438,47.7333059 C200.069248,48.0834144 200.394081,48.9758851 200.043972,49.726695 L185.674951,80.5411598 C185.324843,81.2919697 184.432372,81.6168025 183.681562,81.2666941 C182.930752,80.9165856 182.605919,80.0241149 182.956028,79.273305 L197.325049,48.4588402 C197.675157,47.7080303 198.567628,47.3831975 199.318438,47.7333059 Z M217.318438,47.7333059 C218.069248,48.0834144 218.394081,48.9758851 218.043972,49.726695 L203.674951,80.5411598 C203.324843,81.2919697 202.432372,81.6168025 201.681562,81.2666941 C200.930752,80.9165856 200.605919,80.0241149 200.956028,79.273305 L215.325049,48.4588402 C215.675157,47.7080303 216.567628,47.3831975 217.318438,47.7333059 Z M235.318438,47.7333059 C236.069248,48.0834144 236.394081,48.9758851 236.043972,49.726695 L221.674951,80.5411598 C221.324843,81.2919697 220.432372,81.6168025 219.681562,81.2666941 C218.930752,80.9165856 218.605919,80.0241149 218.956028,79.273305 L233.325049,48.4588402 C233.675157,47.7080303 234.567628,47.3831975 235.318438,47.7333059 Z M253.318438,47.7333059 C254.069248,48.0834144 254.394081,48.9758851 254.043972,49.726695 L239.674951,80.5411598 C239.324843,81.2919697 238.432372,81.6168025 237.681562,81.2666941 C236.930752,80.9165856 236.605919,80.0241149 236.956028,79.273305 L251.325049,48.4588402 C251.675157,47.7080303 252.567628,47.3831975 253.318438,47.7333059 Z M271.318438,47.7333059 C272.069248,48.0834144 272.394081,48.9758851 272.043972,49.726695 L257.674951,80.5411598 C257.324843,81.2919697 256.432372,81.6168025 255.681562,81.2666941 C254.930752,80.9165856 254.605919,80.0241149 254.956028,79.273305 L269.325049,48.4588402 C269.675157,47.7080303 270.567628,47.3831975 271.318438,47.7333059 Z" id="Shape" fill="#1C1C21"></path>
                <path d="M308.5,231 C315.955844,231 322,237.044156 322,244.5 C322,251.955844 315.955844,258 308.5,258 C301.044156,258 295,251.955844 295,244.5 C295,237.044156 301.044156,231 308.5,231 Z M308.5,141 C315.955844,141 322,147.044156 322,154.5 C322,161.955844 315.955844,168 308.5,168 C301.044156,168 295,161.955844 295,154.5 C295,147.044156 301.044156,141 308.5,141 Z M308.5,51 C315.955844,51 322,57.0441559 322,64.5 C322,71.9558441 315.955844,78 308.5,78 C301.044156,78 295,71.9558441 295,64.5 C295,57.0441559 301.044156,51 308.5,51 Z" id="Shape" fill="#843CD4"></path>
                <path d="M137.207848,87 C164.487528,87 186.65373,108.893405 187.094326,136.068088 L187.10101,136.893162 L187.10101,169 L159.886,169 L159.886558,136.893162 C159.886558,124.617306 150.133046,114.619505 137.952718,114.226454 L137.582882,114.217491 L137.207848,114.214452 L108.179099,114.214452 C95.779244,114.214452 85.7036977,124.166 85.5034268,136.518128 L85.5003885,136.893162 L85.5,169 L58.285,169 L58.285,136.893162 C58.285,109.613482 80.1793412,87.4472803 107.354024,87.0066843 L108.179099,87 L137.207848,87 Z" id="Shape" fill="#FFBE29" fill-rule="nonzero"></path>
                <path d="M159.885936,168.999982 L159.885936,154.128982 L187.100936,154.128982 L187.1,168.999982 L213.386946,169 C218.909794,169 223.386946,173.477153 223.386946,179 L223.386946,294 C223.386946,299.522847 218.909794,304 213.386946,304 L160,304 L160,169 L159.885936,168.999982 Z M85.5,154.128982 L85.5,168.999982 L58.285,168.999982 L58.2859363,154.128982 L85.5,154.128982 Z" id="Shape" fill="#E7A204" fill-rule="nonzero"></path>
                <path d="M32,169 L167.122378,169 C172.645225,169 177.122378,173.477153 177.122378,179 L177.122378,294 C177.122378,299.522847 172.645225,304 167.122378,304 L32,304 C26.4771525,304 22,299.522847 22,294 L22,179 C22,173.477153 26.4771525,169 32,169 Z" id="Shape" fill="#FFBE29"></path>
                <path d="M99.5611888,194.857809 C112.336797,194.857809 122.693473,205.214485 122.693473,217.990093 C122.693473,227.334594 117.152712,235.38498 109.177327,239.035114 L113.876897,271.93548 C114.189316,274.122416 112.66972,276.148544 110.482784,276.460963 C110.295411,276.487731 110.106374,276.501166 109.917099,276.501166 L90.1124273,276.501166 C87.9032883,276.501166 86.1124273,274.710305 86.1124273,272.501166 C86.1124273,272.31189 86.1258617,272.122853 86.1526293,271.93548 L90.7991011,239.40528 C82.367979,235.952047 76.4289044,227.664643 76.4289044,217.990093 C76.4289044,205.214485 86.7855809,194.857809 99.5611888,194.857809 Z" id="Shape" fill="#E7A204"></path>
                <path d="M386.796054,233.915523 L404.25605,251.375519 C405.476747,252.596216 405.476747,254.575357 404.25605,255.796054 L386.796054,273.25605 C385.575357,274.476747 383.596216,274.476747 382.375519,273.25605 L364.915523,255.796054 C363.694826,254.575357 363.694826,252.596216 364.915523,251.375519 L382.375519,233.915523 C383.596216,232.694826 385.575357,232.694826 386.796054,233.915523 Z M17.2592108,112.693155 L30.4784178,125.912362 C31.4026246,126.836569 31.4026246,128.335004 30.4784178,129.259211 L17.2592108,142.478418 C16.335004,143.402625 14.8365688,143.402625 13.9123621,142.478418 L0.693155055,129.259211 C-0.231051685,128.335004 -0.231051685,126.836569 0.693155055,125.912362 L13.9123621,112.693155 C14.8365688,111.768948 16.335004,111.768948 17.2592108,112.693155 Z M121.722368,0.470787368 L130.700786,9.44920519 C131.328502,10.0769217 131.328502,11.0946512 130.700786,11.7223677 L121.722368,20.7007855 C121.094651,21.328502 120.076922,21.328502 119.449205,20.7007855 L110.470787,11.7223677 C109.843071,11.0946512 109.843071,10.0769217 110.470787,9.44920519 L119.449205,0.470787368 C120.076922,-0.156929123 121.094651,-0.156929123 121.722368,0.470787368 Z" id="Shape" fill="#FFBE29"></path>
            </g>
        </g>
    </g>
</svg>