<svg width="41px" height="40px" viewBox="0 0 41 40" version="1.1" xmlns="http://www.w3.org/2000/svg" xmlns:xlink="http://www.w3.org/1999/xlink">
    <g id="Page-1" stroke="none" stroke-width="1" fill="none" fill-rule="evenodd">
        <path d="M8,11.5 L8,38.5 L11,38.5 L11,25.5 L19,25.5 L19,38.5 L22,38.5 L22,21.5 L30,21.5 L30,38.5 L33,38.5 L33,30.5 L41,30.5 L41,40 L0,40 L0,11.5 L8,11.5 Z M6.5,13 L1.5,13 L1.5,38 L6.5,38 L6.5,13 Z M17.5,27 L12.5,27 L12.5,38 L17.5,38 L17.5,27 Z M28.5,23 L23.5,23 L23.5,38 L28.5,38 L28.5,23 Z M39.5,32 L34.5,32 L34.5,38 L39.5,38 L39.5,32 Z M6.0625,-1.77635684e-15 C6.42643411,-1.77635684e-15 6.734375,0.1388875 6.98632813,0.416666667 L18.4082031,11.75 L25.6308594,8.125 C25.8548188,7.98611042 26.1067694,7.94444417 26.3867188,8 C26.6666681,8.05555583 26.9046214,8.16666583 27.1005859,8.33333333 L37.0947266,17.2083333 L37.0947266,14.3333333 C37.0947266,13.9722204 37.2277005,13.6597235 37.4936523,13.3958333 C37.7596042,13.1319431 38.0745425,13 38.4384766,13 C38.8024107,13 39.1173489,13.1319431 39.3833008,13.3958333 C39.6492526,13.6597235 39.7822266,13.9722204 39.7822266,14.3333333 L39.7822266,21.3333333 L32.8115234,21.3333333 C32.4475893,21.3333333 32.1326511,21.2013902 31.8666992,20.9375 C31.6007474,20.6736098 31.4677734,20.3611129 31.4677734,20 C31.4677734,19.6388871 31.5867501,19.3263902 31.824707,19.0625 C32.062664,18.7986098 32.363605,18.6666667 32.7275391,18.6666667 L34.7431641,18.6666667 L26.0087891,10.9166667 L18.7441406,14.5416667 C18.4921862,14.6805562 18.2262384,14.7222225 17.9462891,14.6666667 C17.6663397,14.6111108 17.4283864,14.4722233 17.2324219,14.25 L5.13867188,2.25 C4.85872256,2 4.71875,1.69444625 4.71875,1.33333333 C4.71875,0.972220417 4.85872256,0.666666667 5.13867188,0.416666667 C5.390625,0.1388875 5.69856589,-1.77635684e-15 6.0625,-1.77635684e-15 Z" id="Combined-Shape" fill="#16BCAF" fill-rule="nonzero"></path>
    </g>
</svg>