<svg width="154" height="23" viewBox="0 0 154 23" xmlns="http://www.w3.org/2000/svg"><title>samsung</title><path d="M84.187 10.785s-1.49-.925-2.414-1.281c0 0-2.854-1.326-3.42-1.956 0 0-1.112-1.05-.462-2.27 0 0 .273-.799 1.449-.799 0 0 1.53.085 1.53 1.345v1.778h5.485l-.01-2.619S86.766.696 79.884.507c0 0-5.412-.357-6.965 2.564 0 0-.609.651-.609 2.921v1.64s-.062 1.892.903 3.11c0 0 .545.8 1.888 1.682 0 0 2.727 1.47 4.364 2.313 0 0 1.652.945 1.434 2.448 0 0-.133 1.543-1.73 1.48 0 0-1.458-.067-1.458-1.579V15.31h-5.845v2.582s-.164 4.936 7.347 4.936c0 0 7.175.145 7.511-5.067v-2.1s.252-3.194-2.537-4.875m-28.08-9.665l-1.836 11.53h-.43L52.088 1.226h-9.162l-.458 20.879h5.424l.065-15.732h.427l2.875 15.73h5.707l2.84-15.724h.377l.131 15.726h5.454L65.18 1.121h-9.072m-32.29.087l-3.61 20.874h5.84l2.138-16.185h.48l2.137 16.185h5.838L33.033 1.207h-9.216m122.533 9.291v3.079h1.498v3.305c0 1.615-1.379 1.645-1.379 1.645-1.676 0-1.612-1.535-1.612-1.535V5.56c0-1.178 1.487-1.24 1.487-1.24 1.428 0 1.439 1.404 1.439 1.404v1.739h5.497c.179-3.393-.496-4.215-.496-4.215-1.364-3.07-6.522-2.902-6.522-2.902-7.93 0-7.05 6.095-7.05 6.095v11.054c.17 5.717 7.981 5.137 8.114 5.13 3.477-.386 4.526-1.49 4.526-1.49a3.392 3.392 0 0 0 1.215-1.715c.276-.58.345-2.428.345-2.428v-6.494h-7.062m-18.224 3.397h-.239l-5.581-12.769h-6.674v20.982h5.432L120.74 9.34h.242l5.78 12.767h6.475V1.125h-5.501l.391 12.77m-25.758 2.985s.08 1.722-1.513 1.722c0 0-1.678.09-1.678-1.679L99.16 1.14h-5.958v15.659s-.613 5.926 7.735 5.926c0 0 7.255.085 7.255-5.655V1.139h-5.824V16.88m-89.911-6.096s-1.49-.924-2.413-1.28c0 0-2.852-1.325-3.418-1.956 0 0-1.113-1.052-.461-2.27 0 0 .271-.798 1.446-.798 0 0 1.531.084 1.531 1.344v1.778h5.487l-.01-2.62S15.037.695 8.157.507c0 0-.517-.034-1.279.005 0 0-4.167.224-5.657 2.514-.008.017-.02.03-.028.045 0 0-.61.651-.61 2.921v1.64s-.063 1.891.903 3.11c0 0 .546.8 1.889 1.682 0 0 2.725 1.47 4.361 2.311 0 0 1.654.945 1.436 2.45 0 0-.134 1.543-1.728 1.48 0 0-1.46-.067-1.46-1.579v-1.779H.139v2.584s-.164 4.936 7.346 4.936c0 0 7.174.145 7.511-5.067v-2.1s.251-3.194-2.54-4.876" fill="rgba(255,255,255,0.7)" fill-rule="evenodd"/></svg>