<?xml version="1.0" encoding="UTF-8"?>
<svg width="130px" height="122px" viewBox="0 0 130 122" version="1.1" xmlns="http://www.w3.org/2000/svg" xmlns:xlink="http://www.w3.org/1999/xlink">
    <!-- Generator: Sketch 60 (88103) - https://sketch.com -->
    <title>01_Icon</title>
    <desc>Created with Sketch.</desc>
    <g id="Page-1" stroke="none" stroke-width="1" fill="none" fill-rule="evenodd">
        <g id="02" transform="translate(-398.000000, -177.000000)">
            <g id="01_Icon" transform="translate(398.000000, 177.000000)">
                <path d="M4,42 L80,42 C82.209139,42 84,43.790861 84,46 L84,108.333333 C84,110.542472 82.209139,112.333333 80,112.333333 L4,112.333333 C1.790861,112.333333 0,110.542472 0,108.333333 L0,46 C0,43.790861 1.790861,42 4,42 Z" id="Shape" fill="#AA63F8"></path>
                <path d="M42.1666667,61.7777778 C47.4747368,61.7777778 51.7777778,66.0808188 51.7777778,71.3888889 C51.7777778,75.2713861 49.4756761,78.6161987 46.1620255,80.132774 L48.1146248,93.8023738 C48.2444303,94.7110123 47.6130614,95.5528376 46.7044229,95.6826431 C46.6265722,95.6937646 46.5480303,95.6993464 46.4693892,95.6993464 L38.2408504,95.6993464 C37.3229869,95.6993464 36.5789115,94.955271 36.5789115,94.0374075 C36.5789115,93.9587664 36.5844933,93.8802245 36.5956148,93.8023738 L38.5261529,80.286572 C35.0231504,78.8518067 32.5555556,75.4085166 32.5555556,71.3888889 C32.5555556,66.0808188 36.8585966,61.7777778 42.1666667,61.7777778 Z M42,0 C59.1926243,0 73.1625525,13.798002 73.4402318,30.9244531 L73.4444444,31.4444444 L73.4444444,42 L63.4444444,42 L63.4444444,31.4444444 C63.4444444,19.6010048 53.8434396,10 42,10 C30.2749948,10 20.7477999,19.4099448 20.5584285,31.0898213 L20.5555556,31.4444444 L20.5555556,42 L10.5555556,42 L10.5555556,31.4444444 C10.5555556,14.0781573 24.6337129,0 42,0 Z" id="Shape" fill="#843CD4"></path>
                <path d="M73.444,40 L73.4444444,42 L63.4444444,42 L63.444,40 L73.444,40 Z M20.555,40 L20.5555556,42 L10.5555556,42 L10.555,40 L20.555,40 Z" id="Shape" fill="#1C1C21"></path>
                <path d="M85.2318166,73.2328705 C85.6755924,73.451887 86.0347927,73.8110873 86.2538091,74.254863 L92.8332151,87.5861956 L107.545214,89.7239742 C108.775071,89.9026829 109.627196,91.0445513 109.448487,92.2744086 C109.377324,92.7641442 109.146703,93.216763 108.792327,93.5621943 L98.1466249,103.93919 L100.659734,118.591742 C100.869819,119.81663 100.047159,120.979905 98.8222707,121.18999 C98.3345139,121.273646 97.8327822,121.19418 97.3947493,120.963892 L84.2359374,114.045896 L71.0771255,120.963892 C69.9771077,121.542206 68.6165512,121.119281 68.0382376,120.019263 C67.8079501,119.58123 67.7284836,119.079499 67.8121405,118.591742 L70.3252499,103.93919 L59.6795474,93.5621943 C58.7896143,92.6947239 58.7714047,91.2700669 59.6388751,90.3801337 C59.9843063,90.0257577 60.4369251,89.7951369 60.9266607,89.7239742 L75.6386597,87.5861956 L82.2180657,74.254863 C82.7680746,73.1404232 84.1173768,72.6828616 85.2318166,73.2328705 Z M113.670764,46.1568706 C113.969709,46.3044085 114.21168,46.5463797 114.359218,46.8453242 L118.79136,55.8258244 L128.70193,57.2659146 C129.530409,57.3862997 130.104433,58.1555063 129.984048,58.9839857 C129.93611,59.3138905 129.780755,59.618792 129.542034,59.8514878 L122.370678,66.8418324 L124.063605,76.7123573 C124.205126,77.537489 123.65095,78.321116 122.825819,78.4626372 C122.497247,78.5189917 122.159261,78.4654599 121.864185,78.3103294 L112.999902,73.6500997 L104.135618,78.3103294 C103.394603,78.6999038 102.47808,78.4150053 102.088506,77.6739908 C101.933375,77.3789149 101.879843,77.040929 101.936198,76.7123573 L103.629126,66.8418324 L96.4577694,59.8514878 C95.8582761,59.2671263 95.8460094,58.3074223 96.4303709,57.707929 C96.6630667,57.4692076 96.9679682,57.3138526 97.2978731,57.2659146 L107.208443,55.8258244 L111.640585,46.8453242 C112.011093,46.0945945 112.920035,45.7863633 113.670764,46.1568706 Z" id="Shape" fill="#FFBE29"></path>
            </g>
        </g>
    </g>
</svg>