<?xml version="1.0" encoding="UTF-8"?>
<svg width="116px" height="110px" viewBox="0 0 116 110" version="1.1" xmlns="http://www.w3.org/2000/svg" xmlns:xlink="http://www.w3.org/1999/xlink">
    <!-- Generator: Sketch 60 (88103) - https://sketch.com -->
    <title>03_Icon</title>
    <desc>Created with Sketch.</desc>
    <g id="Page-1" stroke="none" stroke-width="1" fill="none" fill-rule="evenodd">
        <g id="03" transform="translate(-408.000000, -202.000000)">
            <g id="03_Icon" transform="translate(408.000000, 202.000000)">
                <path d="M15,20 L101,20 C106.522847,20 111,24.4771525 111,30 L111,100 C111,105.522847 106.522847,110 101,110 L15,110 C9.4771525,110 5,105.522847 5,100 L5,30 C5,24.4771525 9.4771525,20 15,20 Z" id="Shape" fill="#843CD4"></path>
                <path d="M22,0 L94,0 C95.1045695,0 96,0.8954305 96,2 L96,18 C96,19.1045695 95.1045695,20 94,20 L22,20 C20.8954305,20 20,19.1045695 20,18 L20,2 C20,0.8954305 20.8954305,0 22,0 Z" id="Shape" fill="#E7A204"></path>
                <path d="M17,10 L99,10 C100.104569,10 101,10.8954305 101,12 L101,48 C101,49.1045695 100.104569,50 99,50 L17,50 C15.8954305,50 15,49.1045695 15,48 L15,12 C15,10.8954305 15.8954305,10 17,10 Z" id="Shape" fill="#FFBE29"></path>
                <path d="M10,30 L35.6676799,30 C38.4317692,30 41.0725775,31.1440827 42.9630519,33.1605887 L54.4073896,45.3678823 C54.7854845,45.7711835 55.3136462,46 55.866464,46 L106,46 C111.522847,46 116,50.4771525 116,56 L116,100 C116,105.522847 111.522847,110 106,110 L10,110 C4.4771525,110 0,105.522847 0,100 L0,40 C0,34.4771525 4.4771525,30 10,30 Z" id="Shape" fill="#AA63F8"></path>
                <path d="M80,81 C80.5522847,81 81,81.4477153 81,82 C81,82.5522847 80.5522847,83 80,83 L36,83 C35.4477153,83 35,82.5522847 35,82 C35,81.4477153 35.4477153,81 36,81 L80,81 Z M80,68 C80.5522847,68 81,68.4477153 81,69 C81,69.5522847 80.5522847,70 80,70 L36,70 C35.4477153,70 35,69.5522847 35,69 C35,68.4477153 35.4477153,68 36,68 L80,68 Z" id="Shape" fill="#1C1C21"></path>
            </g>
        </g>
    </g>
</svg>