<?xml version="1.0" encoding="UTF-8"?>
<svg width="59px" height="62px" viewBox="0 0 59 62" version="1.1" xmlns="http://www.w3.org/2000/svg" xmlns:xlink="http://www.w3.org/1999/xlink">
    <!-- Generator: Sketch 51.3 (57544) - http://www.bohemiancoding.com/sketch -->
    <title>teleperformance</title>
    <desc>Created with Sketch.</desc>
    <defs></defs>
    <g id="Page-1" stroke="none" stroke-width="1" fill="none" fill-rule="evenodd">
        <g id="logos" transform="translate(-882.000000, -7.000000)" fill="rgba(255,255,255,0.7)">
            <path d="M898.131646,60.5320598 L905.370591,67.1152106 C906.475114,68.1196721 907.914442,68.6762695 909.407397,68.6762695 L916.962402,68.6762695 C917.514687,68.6762695 917.962402,68.2285543 917.962402,67.6762695 L917.9624,46.1021952 C917.9624,45.5681275 918.382063,45.1283166 918.915544,45.1032913 C926.589372,44.7433162 931.917573,42.8766104 934.900146,39.5031738 C945.373779,27.6569824 940.60791,10.2145996 920.985596,7.48730469 C910.634119,6.85108516 897.958715,6.83784644 882.959383,7.44758852 L882.959383,7.44758746 C882.423341,7.46937825 882,7.9102786 882,8.44676328 L882,21.708317 C882,21.9841849 882.113962,22.2477984 882.314924,22.4367888 L893.396711,32.8584213 C893.799035,33.2367782 894.431902,33.2173492 894.810259,32.8150254 C894.984678,32.6295582 895.081787,32.3845471 895.081787,32.1299495 L895.081787,21.9978027 C895.081787,21.445518 894.634072,20.9978027 894.081787,20.9978027 L884.845947,20.9978027 C884.293663,20.9978027 883.845947,20.5500875 883.845947,19.9978027 L883.845947,10.5041504 C883.845947,9.95186564 884.293663,9.50415039 884.845947,9.50415039 L917.872559,9.50415039 C918.424843,9.50415039 918.872559,9.95186564 918.872559,10.5041504 L918.872559,19.9978027 C918.872559,20.5500875 918.424843,20.9978027 917.872559,20.9978027 L908.413086,20.9978027 C907.860801,20.9978027 907.413086,21.445518 907.413086,21.9978027 L907.413086,58.7922363 L898.804447,58.7922363 C898.252162,58.7922363 897.804447,59.2399516 897.804447,59.7922363 C897.804447,60.073921 897.923249,60.3425421 898.131646,60.5320598 Z" id="teleperformance"></path>
        </g>
    </g>
</svg>